<svg width="2004" height="679" viewBox="0 0 2004 679" fill="none" xmlns="http://www.w3.org/2000/svg">
<path d="M140.236 465.085C23.3874 455.532 -1.43853 394.762 0.754576 365.572L0.754576 0.0429687L2003.5 0.0429687V365.572C2005.69 394.762 1980.86 455.532 1864.01 465.085C1717.95 477.026 1721.9 518.822 1699.53 552.656C1677.16 586.491 1641.63 620.325 1516.63 593.457C1391.62 566.588 1269.24 557.632 1175.82 621.32C1101.08 672.271 1028.73 678.043 1002.13 678.043C975.523 678.043 903.172 672.271 828.431 621.32C735.005 557.632 612.63 566.588 487.623 593.457C362.616 620.325 327.088 586.491 304.718 552.656C282.349 518.822 286.297 477.026 140.236 465.085Z" fill="#1D1534"/>
</svg>
