<svg width="2493" height="927" viewBox="0 0 2493 927" fill="none" xmlns="http://www.w3.org/2000/svg">
<path d="M2357.07 717.12C2497.95 771.656 2502.07 879.554 2486.53 926.686L2292.89 911.333L239.627 911.334L0 260.423C10.1017 211.831 67.6227 120.452 216.895 143.661C403.484 172.672 416.945 102.83 459.583 54.7964C502.221 6.76247 561.196 -36.8941 704.595 48.747C847.995 134.388 995.996 189.784 1139.97 116.44C1255.15 57.764 1347.51 72.3698 1380.54 81.2198C1413.57 90.0697 1500.86 123.602 1571.27 232.007C1659.29 367.513 1815.16 393.539 1982.17 391.071C2149.18 388.604 2178.42 455.899 2191.33 518.817C2204.24 581.734 2180.98 648.95 2357.07 717.12Z" fill="#1D1534"/>
</svg>
