<svg width="1920" height="1618" viewBox="0 0 1920 1618" fill="none" xmlns="http://www.w3.org/2000/svg">
<path d="M-42.8711 1305.5C-45.0642 1334.69 -20.1088 1395.49 96.7397 1405.04C220.1 1415.13 236.456 1446.51 252.037 1476.4C254.905 1481.9 257.746 1487.36 261.222 1492.61C283.592 1526.45 319.12 1560.28 444.127 1533.41C569.134 1506.55 691.509 1497.59 784.935 1561.28C859.676 1612.23 932.027 1618 958.629 1618C985.231 1618 1057.58 1612.23 1132.32 1561.28C1225.75 1497.59 1348.12 1506.55 1473.13 1533.41C1598.14 1560.28 1633.67 1526.45 1656.04 1492.61C1659.51 1487.36 1662.35 1481.9 1665.22 1476.4C1680.8 1446.51 1697.16 1415.13 1820.52 1405.04C1937.37 1395.49 1962.19 1334.72 1960 1305.53V0H1958.4C1950.91 31.134 1917.24 74.134 1820.52 82.0419C1697.16 92.1276 1680.8 123.509 1665.22 153.403C1662.35 158.904 1659.51 164.355 1656.04 169.614C1633.67 203.448 1598.14 237.282 1473.13 210.414C1348.12 183.545 1225.75 174.589 1132.32 238.278C1057.58 289.228 985.231 295 958.629 295C932.027 295 859.676 289.228 784.935 238.278C691.509 174.589 569.134 183.545 444.127 210.414C319.12 237.282 283.592 203.448 261.222 169.614C257.746 164.355 254.905 158.904 252.037 153.403C236.456 123.509 220.1 92.1276 96.7397 82.0419C0.0176392 74.134 -33.6524 31.134 -41.1379 0H-42.7417L-42.8711 1305.5Z" fill="#F2F0F4"/>
</svg>
