<svg width="1920" height="1708" viewBox="0 0 1920 1708" fill="none" xmlns="http://www.w3.org/2000/svg">
<path d="M97.6108 1495.04C-19.2377 1485.49 -44.0636 1424.72 -41.8705 1395.53L-41.8705 0L1960.87 0V1395.53C1963.06 1424.72 1938.24 1485.49 1821.39 1495.04C1675.33 1506.98 1679.28 1548.78 1656.91 1582.61C1634.54 1616.45 1599.01 1650.28 1474 1623.41C1349 1596.55 1226.62 1587.59 1133.19 1651.28C1058.45 1702.23 986.102 1708 959.5 1708C932.898 1708 860.547 1702.23 785.806 1651.28C692.38 1587.59 570.005 1596.55 444.998 1623.41C319.991 1650.28 284.463 1616.45 262.093 1582.61C239.724 1548.78 243.671 1506.98 97.6108 1495.04Z" fill="black"/>
<path d="M97.6108 1495.04C-19.2377 1485.49 -44.0636 1424.72 -41.8705 1395.53L-41.8705 0L1960.87 0V1395.53C1963.06 1424.72 1938.24 1485.49 1821.39 1495.04C1675.33 1506.98 1679.28 1548.78 1656.91 1582.61C1634.54 1616.45 1599.01 1650.28 1474 1623.41C1349 1596.55 1226.62 1587.59 1133.19 1651.28C1058.45 1702.23 986.102 1708 959.5 1708C932.898 1708 860.547 1702.23 785.806 1651.28C692.38 1587.59 570.005 1596.55 444.998 1623.41C319.991 1650.28 284.463 1616.45 262.093 1582.61C239.724 1548.78 243.671 1506.98 97.6108 1495.04Z" fill="url(#paint0_linear_502_2032)"/>
<defs>
<linearGradient id="paint0_linear_502_2032" x1="-42.0001" y1="87.6531" x2="2395.24" y2="700.199" gradientUnits="userSpaceOnUse">
<stop stop-color="white"/>
<stop offset="0.0001" stop-color="#0099FF"/>
<stop offset="0.964" stop-color="#125487"/>
</linearGradient>
</defs>
</svg>
