<svg width="832" height="241" viewBox="0 0 832 241" fill="none" xmlns="http://www.w3.org/2000/svg">
<path d="M98.5 40.4062C69.7 -6.3938 -5.83333 -3.0938 -40 4.4062V240.406H831.5C809.5 206.806 740.333 208.073 708.5 212.906C715.333 222.073 724.6 234.606 707 211.406C689.4 188.206 635.333 190.74 610.5 194.906C578.1 147.706 519.333 145.906 494 150.906C497.2 112.906 466.667 107.073 451 108.906C433 62.9062 394.5 65.0729 377.5 71.9062C294.3 6.70625 197.5 32.4062 159.5 53.4062C137.5 30.6063 109.667 35.2396 98.5 40.4062Z" fill="url(#paint0_linear_246_242)" fill-opacity="0.8"/>
<defs>
<linearGradient id="paint0_linear_246_242" x1="395.75" y1="0" x2="396" y2="240" gradientUnits="userSpaceOnUse">
<stop stop-color="#FDBBB4"/>
<stop offset="1" stop-color="#E89E98" stop-opacity="0"/>
</linearGradient>
</defs>
</svg>
