<svg width="54" height="55" viewBox="0 0 54 55" fill="none" xmlns="http://www.w3.org/2000/svg">
<path d="M52.7906 38.1469C52.6147 37.944 52.3973 37.7812 52.1531 37.6696C51.9089 37.558 51.6435 37.5002 51.375 37.5H47.625V33.75C47.625 31.6838 45.9431 30 43.875 30H36.375C34.3069 30 32.625 31.6838 32.625 33.75V37.5H28.875C28.6063 37.5 28.3406 37.5577 28.0962 37.6693C27.8517 37.7809 27.634 37.9437 27.458 38.1468C27.282 38.3499 27.1516 38.5884 27.0758 38.8463C27.0001 39.1041 26.9806 39.3752 27.0188 39.6413L28.8938 52.7663C28.9578 53.2129 29.1808 53.6214 29.5218 53.9169C29.8627 54.2124 30.2988 54.3751 30.75 54.375H49.5C49.9512 54.3751 50.3873 54.2124 50.7282 53.9169C51.0692 53.6214 51.2922 53.2129 51.3563 52.7663L53.2313 39.6413C53.2692 39.3751 53.2495 39.104 53.1735 38.8461C53.0975 38.5883 52.9669 38.3498 52.7906 38.1469ZM36.375 33.75H43.875V37.5H36.375V33.75ZM47.8744 50.625H32.3756L31.0369 41.25H49.2131L47.8744 50.625ZM15.75 35.625H19.5V54.375H15.75V35.625Z" fill="white"/>
<path d="M28.4625 31.6406L24.8888 27.1706L22.185 20.4112C21.7696 19.3657 21.0493 18.4694 20.1177 17.8387C19.1861 17.2081 18.0863 16.8723 16.9613 16.875H6.375C3.27375 16.875 0.75 19.3988 0.75 22.5V35.625C0.75 37.6931 2.43187 39.375 4.5 39.375H6.375V54.375H10.125V35.625H4.5V22.5C4.5 22.0027 4.69754 21.5258 5.04918 21.1742C5.40081 20.8225 5.87772 20.625 6.375 20.625H16.9613C17.7319 20.625 18.4163 21.0881 18.7013 21.8044L21.7856 29.2969L25.5356 33.9844L28.4625 31.6406ZM4.5 7.5C4.5 3.36375 7.86375 0 12 0C16.1363 0 19.5 3.36375 19.5 7.5C19.5 11.6363 16.1363 15 12 15C7.86375 15 4.5 11.6363 4.5 7.5ZM8.25 7.5C8.25 9.56812 9.93188 11.25 12 11.25C14.0681 11.25 15.75 9.56812 15.75 7.5C15.75 5.43187 14.0681 3.75 12 3.75C9.93188 3.75 8.25 5.43187 8.25 7.5Z" fill="white"/>
</svg>
