<svg width="343" height="144" viewBox="0 0 343 144" fill="none" xmlns="http://www.w3.org/2000/svg">
<path d="M115.241 29.52C113.881 38 110.601 47.24 105.401 57.24C98.601 70.28 90.121 80.76 79.961 88.68C65.721 99.88 51.721 105.48 37.961 105.48C33.881 105.48 30.441 104.92 27.641 103.8C24.841 102.68 23.121 101.32 22.481 99.72C22.161 98.84 22.001 97.92 22.001 96.96C22.001 93.04 24.761 89.04 30.281 84.96C34.921 81.52 40.001 78.96 45.521 77.28C50.241 75.92 55.481 75.24 61.241 75.24C66.921 75.24 71.041 75.8 73.601 76.92C75.681 77.88 76.281 78.6 75.401 79.08C75.161 79.24 73.121 79.08 69.281 78.6C64.961 78.04 62.601 77.76 62.201 77.76C56.841 77.76 51.321 78.56 45.641 80.16C40.521 81.68 35.961 83.96 31.961 87C27.641 90.28 25.481 93.44 25.481 96.48C25.481 97.12 25.601 97.68 25.841 98.16C26.641 100.72 30.481 102 37.361 102C42.961 102 48.801 101 54.881 99C62.001 96.6 68.241 93.16 73.601 88.68C83.601 80.2 91.641 69.76 97.721 57.36C103.081 46.16 105.761 35.88 105.761 26.52C105.761 18.6 103.721 13.48 99.641 11.16C96.521 9.48 92.961 8.64 88.961 8.64C80.081 8.64 69.881 12.48 58.361 20.16C52.441 33.84 47.001 45.28 42.041 54.48C25.881 84.72 14.041 99.84 6.52098 99.84C2.76098 99.84 0.880977 97.2 0.880977 91.92C0.880977 86.08 3.36098 78.52 8.32098 69.24C13.761 59.08 21.161 49.12 30.521 39.36C37.721 31.68 45.961 24.72 55.241 18.48C55.961 16.48 56.921 14.04 58.121 11.16C58.841 8.83999 59.681 6.12 60.641 3C61.121 1.56 62.001 0.959996 63.281 1.19999C64.401 1.36 64.801 2.4 64.481 4.32C64.161 5.91999 62.841 9.51999 60.521 15.12C74.601 6.47999 86.361 2.35999 95.801 2.75999C109.241 3.23999 115.961 9.55999 115.961 21.72C115.961 24.04 115.721 26.64 115.241 29.52ZM52.961 24C35.441 37.52 21.561 53.44 11.321 71.76C7.00098 79.6 4.84098 85.76 4.84098 90.24C4.84098 93.28 5.92098 94.8 8.08098 94.8C13.121 94.8 23.041 81.72 37.841 55.56C42.881 46.68 47.921 36.16 52.961 24ZM164.65 71.04C165.45 71.68 165.25 72.72 164.05 74.16C160.21 78.72 154.09 83.96 145.69 89.88C135.61 97 126.53 100.56 118.45 100.56C115.41 100.56 112.85 99.92 110.77 98.64C107.49 96.56 105.85 93.36 105.85 89.04C105.85 81.92 109.65 74.44 117.25 66.6C121.89 61.88 127.05 58 132.73 54.96C138.41 51.92 143.17 50.4 147.01 50.4C150.61 50.4 152.41 51.48 152.41 53.64C152.41 55.8 150.57 58.92 146.89 63C143.61 66.52 140.17 69.56 136.57 72.12C130.41 76.52 123.89 79.44 117.01 80.88C116.21 83.36 115.81 85.56 115.81 87.48C115.81 90.52 116.81 92.76 118.81 94.2C120.57 95.4 122.65 96 125.05 96C130.33 96 136.61 93.4 143.89 88.2C150.93 83.16 156.85 77.88 161.65 72.36C163.01 70.92 164.01 70.48 164.65 71.04ZM147.49 53.04C145.33 53.04 142.21 54.24 138.13 56.64C133.81 59.2 129.81 62.36 126.13 66.12C123.01 69.32 120.41 73.2 118.33 77.76C123.77 76.32 129.25 73.68 134.77 69.84C138.29 67.36 141.61 64.52 144.73 61.32C147.93 58.12 149.53 55.8 149.53 54.36C149.53 53.48 148.85 53.04 147.49 53.04ZM202.834 73.8C197.794 79 191.834 84.2 184.954 89.4C174.074 97.64 165.074 100.96 157.954 99.36C151.954 98 148.954 94.16 148.954 87.84C148.954 85.44 149.594 83.08 150.874 80.76C152.394 78.12 154.274 76.96 156.514 77.28C158.194 75.76 160.554 73.48 163.594 70.44C166.314 68.04 169.594 64.76 173.434 60.6C173.914 59.8 174.434 58.28 174.994 56.04C175.634 53.8 176.474 51.88 177.514 50.28C178.954 48.12 180.514 47.04 182.194 47.04C183.954 47.04 184.834 48.04 184.834 50.04C184.834 51.96 184.194 53.8 182.914 55.56C181.714 57.32 179.954 59.24 177.634 61.32C177.394 62.2 177.714 64.76 178.594 69C179.634 73.96 180.154 77.84 180.154 80.64C180.154 84.96 178.954 88.76 176.554 92.04C179.674 90.12 182.954 87.76 186.394 84.96C192.634 79.92 197.434 75.52 200.794 71.76C201.274 71.2 201.754 70.92 202.234 70.92C203.114 70.92 203.554 71.36 203.554 72.24C203.554 72.8 203.314 73.32 202.834 73.8ZM174.034 68.16C174.034 67.36 173.914 66.32 173.674 65.04L165.514 72.84C164.314 74.04 162.074 76.16 158.794 79.2C159.034 79.76 159.154 80.32 159.154 80.88C159.154 82.56 158.594 83.8 157.474 84.6C157.394 84.6 156.474 85 154.714 85.8C153.834 86.28 153.154 87.04 152.674 88.08C152.514 88.56 152.434 89.12 152.434 89.76C152.434 93.12 154.154 95.12 157.594 95.76C159.194 96.08 161.074 95.48 163.234 93.96C165.474 92.44 167.554 90.12 169.474 87C172.514 81.88 174.034 75.6 174.034 68.16ZM231.429 31.44C232.229 31.44 232.629 31.96 232.629 33C232.629 34.36 232.029 36.08 230.829 38.16C228.349 42.64 225.989 44.88 223.749 44.88C222.949 44.88 222.549 44.32 222.549 43.2C222.549 41.84 223.149 40.16 224.349 38.16C226.909 33.68 229.269 31.44 231.429 31.44ZM234.429 73.68C230.989 77.84 225.589 82.68 218.229 88.2C207.669 96.04 200.349 99.68 196.269 99.12C191.949 98.56 189.789 96.08 189.789 91.68C189.789 90.8 189.869 89.96 190.029 89.16C190.829 85.56 194.589 79.44 201.309 70.8C203.709 67.76 206.869 64.04 210.789 59.64C214.549 55.56 216.909 53.16 217.869 52.44C218.189 52.2 218.709 52.04 219.429 51.96C220.229 51.8 220.869 51.8 221.349 51.96C221.829 52.04 221.949 52.28 221.709 52.68C219.069 56.44 214.589 63.04 208.269 72.48C202.589 81.28 199.509 87.56 199.029 91.32C198.629 93.72 199.309 94.92 201.069 94.92C204.109 94.92 209.709 91.6 217.869 84.96C225.149 79.12 230.029 74.64 232.509 71.52C232.829 71.12 233.269 70.92 233.829 70.92C234.789 70.92 235.269 71.32 235.269 72.12C235.269 72.6 234.989 73.12 234.429 73.68ZM289.833 72.84C287.433 76.36 281.313 81.88 271.473 89.4C265.233 94.2 257.753 98.16 249.033 101.28C243.113 110.56 237.753 118.32 232.953 124.56C228.153 130.8 222.993 135.6 217.473 138.96C212.833 141.76 208.753 143.16 205.233 143.16C201.633 143.16 199.833 141.48 199.833 138.12C199.833 135.4 200.993 132.12 203.313 128.28C205.553 124.52 208.673 120.84 212.673 117.24C220.193 110.68 230.433 105.04 243.393 100.32C245.873 95.52 247.833 91.48 249.273 88.2C242.393 95.72 236.513 99.36 231.633 99.12C226.673 98.88 224.193 95.84 224.193 90C224.193 84.56 226.753 78.6 231.873 72.12C236.993 65.64 243.073 60.28 250.113 56.04C256.593 52.28 262.073 50.4 266.553 50.4C268.473 50.4 269.993 50.84 271.113 51.72C272.233 52.6 272.673 53.96 272.433 55.8C274.273 53.96 275.393 52.88 275.793 52.56C276.193 52.24 276.753 52.04 277.473 51.96C278.273 51.8 278.913 51.8 279.393 51.96C279.873 52.04 279.993 52.28 279.753 52.68C278.633 54.28 269.273 69.08 251.673 97.08C259.833 93.64 266.033 90.28 270.273 87C277.793 81.24 283.553 75.96 287.553 71.16C288.033 70.68 288.713 70.68 289.593 71.16C290.313 71.56 290.393 72.12 289.833 72.84ZM268.233 60.84C269.193 59.64 269.673 58.24 269.673 56.64C269.673 54.24 268.513 53.04 266.193 53.04C263.713 53.04 260.553 54.28 256.713 56.76C252.553 59.4 248.553 62.92 244.713 67.32C236.073 77.08 231.753 85.16 231.753 91.56C231.753 94.28 232.673 95.64 234.513 95.64C236.593 95.64 239.873 93.48 244.353 89.16C248.113 85.56 251.513 81.72 254.553 77.64C258.393 72.52 262.953 66.92 268.233 60.84ZM241.593 103.92C231.433 107.84 223.153 112.56 216.753 118.08C213.633 120.88 210.993 123.96 208.833 127.32C206.673 130.76 205.593 133.6 205.593 135.84C205.593 138.16 206.593 139.32 208.593 139.32C210.913 139.32 213.993 137.96 217.833 135.24C222.073 132.12 225.953 128.24 229.473 123.6C233.073 118.96 237.113 112.4 241.593 103.92ZM341.316 73.56C338.116 77.48 333.276 81.92 326.796 86.88C316.236 94.96 308.916 99 304.836 99C302.516 99 300.476 98.36 298.716 97.08C296.956 95.8 295.996 94 295.836 91.68C295.436 86.88 298.756 81.52 305.796 75.6C317.076 66.24 322.716 59.88 322.716 56.52C322.716 54.92 321.676 54.12 319.596 54.12C317.196 54.12 313.556 55.72 308.676 58.92C300.836 64.2 294.916 69.52 290.916 74.88C285.236 82.96 279.236 91.08 272.916 99.24C272.196 99.4 271.276 99.28 270.156 98.88C268.956 98.48 268.396 98.04 268.476 97.56C268.636 96.28 274.276 88.16 285.396 73.2C295.156 59.92 300.516 52.88 301.476 52.08C301.876 51.76 302.876 51.6 304.476 51.6C306.076 51.52 306.916 51.68 306.996 52.08C307.076 52.56 305.396 55.16 301.956 59.88C309.156 54.2 315.236 51.36 320.196 51.36C324.756 51.36 327.036 53.32 327.036 57.24C327.036 61 325.116 65.08 321.276 69.48C311.436 80.68 306.196 88.36 305.556 92.52C305.476 93.24 305.676 93.84 306.156 94.32C306.636 94.72 307.436 94.84 308.556 94.68C311.596 94.28 316.596 91.36 323.556 85.92C329.316 81.36 334.436 76.72 338.916 72C339.556 71.2 340.236 70.8 340.956 70.8C341.516 70.8 341.876 71.08 342.036 71.64C342.196 72.28 341.956 72.92 341.316 73.56Z" fill="white"/>
</svg>
