<svg width="60" height="49" viewBox="0 0 60 49" fill="none" xmlns="http://www.w3.org/2000/svg">
<path d="M17.8125 0.625C18.6914 0.625 19.4434 0.712891 20.0684 0.888672C20.6934 1.06445 21.2598 1.29883 21.7676 1.5918C22.2754 1.88477 22.7246 2.1875 23.1152 2.5C23.5059 2.8125 23.8965 3.11523 24.2871 3.4082C24.6777 3.70117 25.1074 3.92578 25.5762 4.08203C26.0449 4.23828 26.582 4.33594 27.1875 4.375H56.25C56.7773 4.375 57.2656 4.47266 57.7148 4.66797C58.1641 4.86328 58.5547 5.12695 58.8867 5.45898C59.2187 5.79102 59.4922 6.19141 59.707 6.66016C59.9219 7.12891 60.0195 7.61719 60 8.125V34.375H56.25V8.125H27.1875C26.582 8.125 26.0547 8.21289 25.6055 8.38867C25.1562 8.56445 24.7266 8.79883 24.3164 9.0918C23.9062 9.38477 23.5059 9.6875 23.1152 10C22.7246 10.3125 22.2852 10.6152 21.7969 10.9082C21.3086 11.2012 20.7422 11.4258 20.0977 11.582C19.4531 11.7383 18.6914 11.8359 17.8125 11.875H3.75V41.875H33.75V45.625H0V4.375C0 3.84766 0.0976562 3.35938 0.292969 2.91016C0.488281 2.46094 0.751953 2.07031 1.08398 1.73828C1.41602 1.40625 1.81641 1.13281 2.28516 0.917969C2.75391 0.703125 3.24219 0.605469 3.75 0.625H17.8125ZM17.8125 8.125C18.2812 8.125 18.6914 8.08594 19.043 8.00781C19.3945 7.92969 19.7168 7.80273 20.0098 7.62695C20.3027 7.45117 20.5859 7.25586 20.8594 7.04102C21.1328 6.82617 21.4453 6.5625 21.7969 6.25C21.4648 5.95703 21.1621 5.70312 20.8887 5.48828C20.6152 5.27344 20.3223 5.07812 20.0098 4.90234C19.6973 4.72656 19.375 4.59961 19.043 4.52148C18.7109 4.44336 18.3008 4.39453 17.8125 4.375H3.75V8.125H17.8125Z" fill="white"/>
<path fill-rule="evenodd" clip-rule="evenodd" d="M31.1849 31.0533L40.6132 21.625L38.2566 19.2683L30.0066 27.5183L21.7566 19.2683L19.3999 21.625L28.8282 31.0533C29.1408 31.3658 29.5646 31.5413 30.0066 31.5413C30.4485 31.5413 30.8724 31.3658 31.1849 31.0533Z" fill="white"/>
<path d="M56.75 41.3726H49.25V48.8726H46.75V41.3726H39.25V38.8726H46.75V31.3726H49.25V38.8726H56.75V41.3726Z" fill="white"/>
</svg>
