<svg width="1782" height="2138" viewBox="0 0 1782 2138" fill="none" xmlns="http://www.w3.org/2000/svg">
<path d="M47.0015 535.149C-6.17765 414.79 57.7382 345.793 96.3434 326.34L660.701 0.507355L1781.84 1942.37L1617.48 2118.2C1581.33 2141.91 1489.62 2162.76 1411.97 2056.53C1314.92 1923.74 1263.61 1958.46 1207.76 1961.79C1151.92 1965.11 762.5 2055.83 653.129 1954.6C546.358 1855.78 560.517 1698.26 426.666 1654.75C319.585 1619.95 271.693 1554.07 256.801 1528.27C241.909 1502.48 208.797 1428.06 232.198 1317.93C261.449 1180.26 181.476 1068.22 77.0925 966.879C-27.2908 865.536 -3.85551 806.074 26.946 759.372C57.7475 712.669 113.476 685.598 47.0015 535.149Z" fill="black"/>
<path d="M47.0015 535.149C-6.17765 414.79 57.7382 345.793 96.3434 326.34L660.701 0.507355L1781.84 1942.37L1617.48 2118.2C1581.33 2141.91 1489.62 2162.76 1411.97 2056.53C1314.92 1923.74 1263.61 1958.46 1207.76 1961.79C1151.92 1965.11 762.5 2055.83 653.129 1954.6C546.358 1855.78 560.517 1698.26 426.666 1654.75C319.585 1619.95 271.693 1554.07 256.801 1528.27C241.909 1502.48 208.797 1428.06 232.198 1317.93C261.449 1180.26 181.476 1068.22 77.0925 966.879C-27.2908 865.536 -3.85551 806.074 26.946 759.372C57.7475 712.669 113.476 685.598 47.0015 535.149Z" fill="url(#paint0_linear_220_85)"/>
<defs>
<linearGradient id="paint0_linear_220_85" x1="611.133" y1="28.9581" x2="897.266" y2="2747.26" gradientUnits="userSpaceOnUse">
<stop stop-color="#1802BE"/>
<stop offset="0.505208" stop-color="#0099FF"/>
<stop offset="0.964" stop-color="#125487"/>
</linearGradient>
</defs>
</svg>
