<svg width="2123" height="2051" viewBox="0 0 2123 2051" fill="none" xmlns="http://www.w3.org/2000/svg">
<path d="M52.0972 690.872C-33.9165 591.293 7.06052 506.637 38.3007 476.756L482.885 0.299075L2122.29 1530.04L1677.71 2006.5C1650.06 2039.73 1568.44 2086.46 1463.15 2007.54C1331.54 1908.88 1292.62 1957.08 1240.18 1976.57C1187.73 1996.06 1124.52 2005.5 1049.3 1880.97C974.071 1756.44 882.931 1653.28 742.21 1650.77C629.633 1648.76 564.587 1599.74 542.81 1579.42C521.034 1559.1 467.631 1497.6 457.845 1385.43C445.611 1245.22 336.403 1161.43 206.971 1094.99C77.5402 1028.55 82.5868 964.838 98.4048 911.175C114.223 857.513 159.614 815.346 52.0972 690.872Z" fill="black"/>
<path d="M52.0972 690.872C-33.9165 591.293 7.06052 506.637 38.3007 476.756L482.885 0.299075L2122.29 1530.04L1677.71 2006.5C1650.06 2039.73 1568.44 2086.46 1463.15 2007.54C1331.54 1908.88 1292.62 1957.08 1240.18 1976.57C1187.73 1996.06 1124.52 2005.5 1049.3 1880.97C974.071 1756.44 882.931 1653.28 742.21 1650.77C629.633 1648.76 564.587 1599.74 542.81 1579.42C521.034 1559.1 467.631 1497.6 457.845 1385.43C445.611 1245.22 336.403 1161.43 206.971 1094.99C77.5402 1028.55 82.5868 964.838 98.4048 911.175C114.223 857.513 159.614 815.346 52.0972 690.872Z" fill="url(#paint0_linear_220_83)"/>
<defs>
<linearGradient id="paint0_linear_220_83" x1="443.788" y1="41.9867" x2="1511.84" y2="2482.12" gradientUnits="userSpaceOnUse">
<stop stop-color="white"/>
<stop offset="0.505208" stop-color="#0099FF"/>
<stop offset="1" stop-color="#125487"/>
</linearGradient>
</defs>
</svg>
