<svg width="319" height="156" viewBox="0 0 319 156" fill="none" xmlns="http://www.w3.org/2000/svg">
<g filter="url(#filter0_d_220_120)">
<mask id="path-1-inside-1_220_120" fill="white">
<path d="M110.045 113.838L115.25 130.883H115.443L120.648 113.838H126.943L119.091 137.11H111.602L103.75 113.838H110.045ZM135.81 113.838H141.355V129.929C141.348 131.436 140.988 132.754 140.276 133.883C139.563 135.004 138.579 135.876 137.321 136.497C136.071 137.118 134.624 137.429 132.98 137.429C131.526 137.429 130.204 137.175 129.014 136.667C127.832 136.16 126.889 135.372 126.185 134.304C125.488 133.235 125.143 131.868 125.151 130.201H130.753C130.776 130.8 130.889 131.311 131.094 131.735C131.306 132.152 131.598 132.466 131.969 132.679C132.34 132.891 132.783 132.997 133.298 132.997C133.836 132.997 134.291 132.883 134.662 132.656C135.033 132.421 135.313 132.076 135.503 131.622C135.7 131.167 135.802 130.603 135.81 129.929V113.838ZM171.568 113.838V137.11H166.795L157.534 123.679H157.386V137.11H151.761V113.838H156.602L165.761 127.247H165.955V113.838H171.568ZM175.105 137.11V113.838H191.332V118.406H180.73V123.179H190.503V127.758H180.73V132.542H191.332V137.11H175.105ZM194.094 118.406V113.838H213.764V118.406H206.707V137.11H201.162V118.406H194.094ZM222.091 137.11L215.318 113.838H221.534L225.045 129.088H225.239L229.25 113.838H234.318L238.33 129.122H238.523L242.045 113.838H248.25L241.489 137.11H236.068L231.875 122.997H231.693L227.5 137.11H222.091ZM271.165 125.474C271.165 128.035 270.672 130.205 269.688 131.985C268.703 133.766 267.369 135.118 265.688 136.042C264.013 136.966 262.134 137.429 260.051 137.429C257.96 137.429 256.078 136.963 254.403 136.031C252.729 135.099 251.4 133.747 250.415 131.974C249.438 130.194 248.949 128.027 248.949 125.474C248.949 122.913 249.438 120.743 250.415 118.963C251.4 117.182 252.729 115.83 254.403 114.906C256.078 113.982 257.96 113.519 260.051 113.519C262.134 113.519 264.013 113.982 265.688 114.906C267.369 115.83 268.703 117.182 269.688 118.963C270.672 120.743 271.165 122.913 271.165 125.474ZM265.415 125.474C265.415 123.959 265.199 122.679 264.767 121.633C264.343 120.588 263.729 119.796 262.926 119.258C262.131 118.72 261.172 118.451 260.051 118.451C258.938 118.451 257.979 118.72 257.176 119.258C256.373 119.796 255.756 120.588 255.324 121.633C254.9 122.679 254.688 123.959 254.688 125.474C254.688 126.989 254.9 128.269 255.324 129.315C255.756 130.36 256.373 131.152 257.176 131.69C257.979 132.228 258.938 132.497 260.051 132.497C261.172 132.497 262.131 132.228 262.926 131.69C263.729 131.152 264.343 130.36 264.767 129.315C265.199 128.269 265.415 126.989 265.415 125.474ZM274.449 137.11V113.838H284.062C285.805 113.838 287.309 114.152 288.574 114.781C289.847 115.402 290.828 116.296 291.517 117.463C292.206 118.622 292.551 119.997 292.551 121.588C292.551 123.201 292.199 124.572 291.494 125.701C290.79 126.822 289.79 127.679 288.494 128.269C287.199 128.853 285.665 129.144 283.892 129.144H277.812V124.713H282.847C283.695 124.713 284.403 124.603 284.972 124.383C285.547 124.156 285.983 123.815 286.278 123.36C286.574 122.898 286.722 122.307 286.722 121.588C286.722 120.868 286.574 120.273 286.278 119.804C285.983 119.326 285.547 118.97 284.972 118.735C284.396 118.493 283.688 118.372 282.847 118.372H280.074V137.11H274.449ZM287.551 126.474L293.347 137.11H287.21L281.528 126.474H287.551ZM295.636 137.11V113.838H301.261V123.679H301.568L309.261 113.838H315.886L307.636 124.224L316.034 137.11H309.307L303.511 127.963L301.261 130.804V137.11H295.636Z"/>
</mask>
<path d="M110.045 113.838L115.25 130.883H115.443L120.648 113.838H126.943L119.091 137.11H111.602L103.75 113.838H110.045ZM135.81 113.838H141.355V129.929C141.348 131.436 140.988 132.754 140.276 133.883C139.563 135.004 138.579 135.876 137.321 136.497C136.071 137.118 134.624 137.429 132.98 137.429C131.526 137.429 130.204 137.175 129.014 136.667C127.832 136.16 126.889 135.372 126.185 134.304C125.488 133.235 125.143 131.868 125.151 130.201H130.753C130.776 130.8 130.889 131.311 131.094 131.735C131.306 132.152 131.598 132.466 131.969 132.679C132.34 132.891 132.783 132.997 133.298 132.997C133.836 132.997 134.291 132.883 134.662 132.656C135.033 132.421 135.313 132.076 135.503 131.622C135.7 131.167 135.802 130.603 135.81 129.929V113.838ZM171.568 113.838V137.11H166.795L157.534 123.679H157.386V137.11H151.761V113.838H156.602L165.761 127.247H165.955V113.838H171.568ZM175.105 137.11V113.838H191.332V118.406H180.73V123.179H190.503V127.758H180.73V132.542H191.332V137.11H175.105ZM194.094 118.406V113.838H213.764V118.406H206.707V137.11H201.162V118.406H194.094ZM222.091 137.11L215.318 113.838H221.534L225.045 129.088H225.239L229.25 113.838H234.318L238.33 129.122H238.523L242.045 113.838H248.25L241.489 137.11H236.068L231.875 122.997H231.693L227.5 137.11H222.091ZM271.165 125.474C271.165 128.035 270.672 130.205 269.688 131.985C268.703 133.766 267.369 135.118 265.688 136.042C264.013 136.966 262.134 137.429 260.051 137.429C257.96 137.429 256.078 136.963 254.403 136.031C252.729 135.099 251.4 133.747 250.415 131.974C249.438 130.194 248.949 128.027 248.949 125.474C248.949 122.913 249.438 120.743 250.415 118.963C251.4 117.182 252.729 115.83 254.403 114.906C256.078 113.982 257.96 113.519 260.051 113.519C262.134 113.519 264.013 113.982 265.688 114.906C267.369 115.83 268.703 117.182 269.688 118.963C270.672 120.743 271.165 122.913 271.165 125.474ZM265.415 125.474C265.415 123.959 265.199 122.679 264.767 121.633C264.343 120.588 263.729 119.796 262.926 119.258C262.131 118.72 261.172 118.451 260.051 118.451C258.938 118.451 257.979 118.72 257.176 119.258C256.373 119.796 255.756 120.588 255.324 121.633C254.9 122.679 254.688 123.959 254.688 125.474C254.688 126.989 254.9 128.269 255.324 129.315C255.756 130.36 256.373 131.152 257.176 131.69C257.979 132.228 258.938 132.497 260.051 132.497C261.172 132.497 262.131 132.228 262.926 131.69C263.729 131.152 264.343 130.36 264.767 129.315C265.199 128.269 265.415 126.989 265.415 125.474ZM274.449 137.11V113.838H284.062C285.805 113.838 287.309 114.152 288.574 114.781C289.847 115.402 290.828 116.296 291.517 117.463C292.206 118.622 292.551 119.997 292.551 121.588C292.551 123.201 292.199 124.572 291.494 125.701C290.79 126.822 289.79 127.679 288.494 128.269C287.199 128.853 285.665 129.144 283.892 129.144H277.812V124.713H282.847C283.695 124.713 284.403 124.603 284.972 124.383C285.547 124.156 285.983 123.815 286.278 123.36C286.574 122.898 286.722 122.307 286.722 121.588C286.722 120.868 286.574 120.273 286.278 119.804C285.983 119.326 285.547 118.97 284.972 118.735C284.396 118.493 283.688 118.372 282.847 118.372H280.074V137.11H274.449ZM287.551 126.474L293.347 137.11H287.21L281.528 126.474H287.551ZM295.636 137.11V113.838H301.261V123.679H301.568L309.261 113.838H315.886L307.636 124.224L316.034 137.11H309.307L303.511 127.963L301.261 130.804V137.11H295.636Z" fill="#125487"/>
<path d="M110.045 113.838L111.002 113.546L110.786 112.838H110.045V113.838ZM115.25 130.883L114.294 131.175L114.51 131.883H115.25V130.883ZM115.443 130.883V131.883H116.183L116.4 131.175L115.443 130.883ZM120.648 113.838V112.838H119.907L119.691 113.546L120.648 113.838ZM126.943 113.838L127.891 114.157L128.336 112.838H126.943V113.838ZM119.091 137.11V138.11H119.809L120.038 137.43L119.091 137.11ZM111.602 137.11L110.655 137.43L110.884 138.11H111.602V137.11ZM103.75 113.838V112.838H102.357L102.802 114.157L103.75 113.838ZM109.089 114.13L114.294 131.175L116.206 130.591L111.002 113.546L109.089 114.13ZM115.25 131.883H115.443V129.883H115.25V131.883ZM116.4 131.175L121.604 114.13L119.691 113.546L114.487 130.591L116.4 131.175ZM120.648 114.838H126.943V112.838H120.648V114.838ZM125.996 113.518L118.143 136.791L120.038 137.43L127.891 114.157L125.996 113.518ZM119.091 136.11H111.602V138.11H119.091V136.11ZM112.55 136.791L104.698 113.518L102.802 114.157L110.655 137.43L112.55 136.791ZM103.75 114.838H110.045V112.838H103.75V114.838ZM135.81 113.838V112.838H134.81V113.838H135.81ZM141.355 113.838H142.355V112.838H141.355V113.838ZM141.355 129.929L142.355 129.934V129.929H141.355ZM140.276 133.883L141.12 134.419L141.121 134.417L140.276 133.883ZM137.321 136.497L136.878 135.6L136.876 135.601L137.321 136.497ZM129.014 136.667L128.62 137.586L128.622 137.587L129.014 136.667ZM126.185 134.304L125.347 134.85L125.35 134.854L126.185 134.304ZM125.151 130.201V129.201H124.155L124.151 130.197L125.151 130.201ZM130.753 130.201L131.752 130.163L131.716 129.201H130.753V130.201ZM131.094 131.735L130.193 132.17L130.198 132.179L130.203 132.189L131.094 131.735ZM131.969 132.679L132.465 131.81L131.969 132.679ZM134.662 132.656L135.184 133.509L135.19 133.505L135.197 133.501L134.662 132.656ZM135.503 131.622L134.585 131.224L134.58 131.237L135.503 131.622ZM135.81 129.929L136.81 129.94V129.929H135.81ZM135.81 114.838H141.355V112.838H135.81V114.838ZM140.355 113.838V129.929H142.355V113.838H140.355ZM140.355 129.924C140.348 131.269 140.03 132.399 139.43 133.35L141.121 134.417C141.946 133.11 142.347 131.603 142.355 129.934L140.355 129.924ZM139.431 133.347C138.823 134.305 137.981 135.055 136.878 135.6L137.764 137.393C139.176 136.696 140.304 135.704 141.12 134.419L139.431 133.347ZM136.876 135.601C135.787 136.142 134.497 136.429 132.98 136.429V138.429C134.751 138.429 136.355 138.093 137.766 137.392L136.876 135.601ZM132.98 136.429C131.644 136.429 130.457 136.196 129.407 135.747L128.622 137.587C129.95 138.154 131.407 138.429 132.98 138.429V136.429ZM129.409 135.748C128.406 135.317 127.616 134.657 127.019 133.753L125.35 134.854C126.163 136.086 127.259 137.002 128.62 137.586L129.409 135.748ZM127.022 133.757C126.46 132.896 126.144 131.736 126.151 130.206L124.151 130.197C124.142 132 124.515 133.575 125.347 134.85L127.022 133.757ZM125.151 131.201H130.753V129.201H125.151V131.201ZM129.754 130.239C129.78 130.939 129.915 131.593 130.193 132.17L131.995 131.301C131.864 131.03 131.771 130.66 131.752 130.163L129.754 130.239ZM130.203 132.189C130.495 132.763 130.916 133.229 131.473 133.547L132.465 131.81C132.279 131.704 132.117 131.542 131.985 131.282L130.203 132.189ZM131.473 133.547C132.023 133.861 132.645 133.997 133.298 133.997V131.997C132.922 131.997 132.657 131.92 132.465 131.81L131.473 133.547ZM133.298 133.997C133.977 133.997 134.622 133.853 135.184 133.509L134.14 131.803C133.959 131.914 133.695 131.997 133.298 131.997V133.997ZM135.197 133.501C135.762 133.143 136.167 132.627 136.426 132.006L134.58 131.237C134.459 131.526 134.304 131.699 134.127 131.811L135.197 133.501ZM136.42 132.019C136.686 131.407 136.801 130.702 136.81 129.94L134.81 129.917C134.803 130.504 134.714 130.927 134.585 131.224L136.42 132.019ZM136.81 129.929V113.838H134.81V129.929H136.81ZM171.568 113.838H172.568V112.838H171.568V113.838ZM171.568 137.11V138.11H172.568V137.11H171.568ZM166.795 137.11L165.972 137.678L166.27 138.11H166.795V137.11ZM157.534 123.679L158.357 123.111L158.059 122.679H157.534V123.679ZM157.386 123.679V122.679H156.386V123.679H157.386ZM157.386 137.11V138.11H158.386V137.11H157.386ZM151.761 137.11H150.761V138.11H151.761V137.11ZM151.761 113.838V112.838H150.761V113.838H151.761ZM156.602 113.838L157.428 113.274L157.13 112.838H156.602V113.838ZM165.761 127.247L164.936 127.811L165.233 128.247H165.761V127.247ZM165.955 127.247V128.247H166.955V127.247H165.955ZM165.955 113.838V112.838H164.955V113.838H165.955ZM170.568 113.838V137.11H172.568V113.838H170.568ZM171.568 136.11H166.795V138.11H171.568V136.11ZM167.619 136.543L158.357 123.111L156.711 124.246L165.972 137.678L167.619 136.543ZM157.534 122.679H157.386V124.679H157.534V122.679ZM156.386 123.679V137.11H158.386V123.679H156.386ZM157.386 136.11H151.761V138.11H157.386V136.11ZM152.761 137.11V113.838H150.761V137.11H152.761ZM151.761 114.838H156.602V112.838H151.761V114.838ZM155.777 114.402L164.936 127.811L166.587 126.683L157.428 113.274L155.777 114.402ZM165.761 128.247H165.955V126.247H165.761V128.247ZM166.955 127.247V113.838H164.955V127.247H166.955ZM165.955 114.838H171.568V112.838H165.955V114.838ZM175.105 137.11H174.105V138.11H175.105V137.11ZM175.105 113.838V112.838H174.105V113.838H175.105ZM191.332 113.838H192.332V112.838H191.332V113.838ZM191.332 118.406V119.406H192.332V118.406H191.332ZM180.73 118.406V117.406H179.73V118.406H180.73ZM180.73 123.179H179.73V124.179H180.73V123.179ZM190.503 123.179H191.503V122.179H190.503V123.179ZM190.503 127.758V128.758H191.503V127.758H190.503ZM180.73 127.758V126.758H179.73V127.758H180.73ZM180.73 132.542H179.73V133.542H180.73V132.542ZM191.332 132.542H192.332V131.542H191.332V132.542ZM191.332 137.11V138.11H192.332V137.11H191.332ZM176.105 137.11V113.838H174.105V137.11H176.105ZM175.105 114.838H191.332V112.838H175.105V114.838ZM190.332 113.838V118.406H192.332V113.838H190.332ZM191.332 117.406H180.73V119.406H191.332V117.406ZM179.73 118.406V123.179H181.73V118.406H179.73ZM180.73 124.179H190.503V122.179H180.73V124.179ZM189.503 123.179V127.758H191.503V123.179H189.503ZM190.503 126.758H180.73V128.758H190.503V126.758ZM179.73 127.758V132.542H181.73V127.758H179.73ZM180.73 133.542H191.332V131.542H180.73V133.542ZM190.332 132.542V137.11H192.332V132.542H190.332ZM191.332 136.11H175.105V138.11H191.332V136.11ZM194.094 118.406H193.094V119.406H194.094V118.406ZM194.094 113.838V112.838H193.094V113.838H194.094ZM213.764 113.838H214.764V112.838H213.764V113.838ZM213.764 118.406V119.406H214.764V118.406H213.764ZM206.707 118.406V117.406H205.707V118.406H206.707ZM206.707 137.11V138.11H207.707V137.11H206.707ZM201.162 137.11H200.162V138.11H201.162V137.11ZM201.162 118.406H202.162V117.406H201.162V118.406ZM195.094 118.406V113.838H193.094V118.406H195.094ZM194.094 114.838H213.764V112.838H194.094V114.838ZM212.764 113.838V118.406H214.764V113.838H212.764ZM213.764 117.406H206.707V119.406H213.764V117.406ZM205.707 118.406V137.11H207.707V118.406H205.707ZM206.707 136.11H201.162V138.11H206.707V136.11ZM202.162 137.11V118.406H200.162V137.11H202.162ZM201.162 117.406H194.094V119.406H201.162V117.406ZM222.091 137.11L221.131 137.39L221.34 138.11H222.091V137.11ZM215.318 113.838V112.838H213.986L214.358 114.117L215.318 113.838ZM221.534 113.838L222.509 113.613L222.33 112.838H221.534V113.838ZM225.045 129.088L224.071 129.312L224.25 130.088H225.045V129.088ZM225.239 129.088V130.088H226.01L226.206 129.342L225.239 129.088ZM229.25 113.838V112.838H228.479L228.283 113.583L229.25 113.838ZM234.318 113.838L235.285 113.584L235.09 112.838H234.318V113.838ZM238.33 129.122L237.362 129.376L237.558 130.122H238.33V129.122ZM238.523 129.122V130.122H239.318L239.497 129.346L238.523 129.122ZM242.045 113.838V112.838H241.25L241.071 113.613L242.045 113.838ZM248.25 113.838L249.21 114.117L249.582 112.838H248.25V113.838ZM241.489 137.11V138.11H242.239L242.449 137.389L241.489 137.11ZM236.068 137.11L235.11 137.395L235.322 138.11H236.068V137.11ZM231.875 122.997L232.834 122.712L232.621 121.997H231.875V122.997ZM231.693 122.997V121.997H230.947L230.735 122.712L231.693 122.997ZM227.5 137.11V138.11H228.246L228.459 137.395L227.5 137.11ZM223.051 136.831L216.278 113.558L214.358 114.117L221.131 137.39L223.051 136.831ZM215.318 114.838H221.534V112.838H215.318V114.838ZM220.56 114.062L224.071 129.312L226.02 128.863L222.509 113.613L220.56 114.062ZM225.045 130.088H225.239V128.088H225.045V130.088ZM226.206 129.342L230.217 114.092L228.283 113.583L224.272 128.833L226.206 129.342ZM229.25 114.838H234.318V112.838H229.25V114.838ZM233.351 114.091L237.362 129.376L239.297 128.868L235.285 113.584L233.351 114.091ZM238.33 130.122H238.523V128.122H238.33V130.122ZM239.497 129.346L243.02 114.062L241.071 113.613L237.548 128.897L239.497 129.346ZM242.045 114.838H248.25V112.838H242.045V114.838ZM247.29 113.559L240.528 136.831L242.449 137.389L249.21 114.117L247.29 113.559ZM241.489 136.11H236.068V138.11H241.489V136.11ZM237.027 136.826L232.834 122.712L230.916 123.282L235.11 137.395L237.027 136.826ZM231.875 121.997H231.693V123.997H231.875V121.997ZM230.735 122.712L226.541 136.826L228.459 137.395L232.652 123.282L230.735 122.712ZM227.5 136.11H222.091V138.11H227.5V136.11ZM269.688 131.985L268.812 131.501L269.688 131.985ZM265.688 136.042L265.206 135.166L265.204 135.167L265.688 136.042ZM254.403 136.031L254.89 135.157L254.403 136.031ZM250.415 131.974L249.538 132.455L249.541 132.46L250.415 131.974ZM250.415 118.963L249.54 118.479L249.538 118.481L250.415 118.963ZM254.403 114.906L254.887 115.781L254.403 114.906ZM265.688 114.906L265.204 115.781L265.206 115.782L265.688 114.906ZM269.688 118.963L268.812 119.447L269.688 118.963ZM264.767 121.633L263.84 122.009L263.843 122.015L264.767 121.633ZM262.926 119.258L262.366 120.086L262.37 120.089L262.926 119.258ZM257.176 119.258L257.733 120.089L257.176 119.258ZM255.324 121.633L254.4 121.251L254.397 121.257L255.324 121.633ZM255.324 129.315L254.397 129.691L254.4 129.697L255.324 129.315ZM257.176 131.69L257.733 130.859L257.176 131.69ZM262.926 131.69L262.37 130.859L262.366 130.862L262.926 131.69ZM264.767 129.315L263.843 128.933L263.84 128.939L264.767 129.315ZM270.165 125.474C270.165 127.908 269.697 129.903 268.812 131.501L270.563 132.469C271.648 130.507 272.165 128.161 272.165 125.474H270.165ZM268.812 131.501C267.913 133.127 266.712 134.338 265.206 135.166L266.169 136.919C268.027 135.898 269.492 134.405 270.563 132.469L268.812 131.501ZM265.204 135.167C263.691 136.002 261.981 136.429 260.051 136.429V138.429C262.288 138.429 264.336 137.931 266.171 136.918L265.204 135.167ZM260.051 136.429C258.115 136.429 256.402 135.999 254.89 135.157L253.917 136.905C255.753 137.927 257.806 138.429 260.051 138.429V136.429ZM254.89 135.157C253.388 134.321 252.189 133.108 251.289 131.488L249.541 132.46C250.611 134.385 252.07 135.877 253.917 136.905L254.89 135.157ZM251.291 131.493C250.413 129.893 249.949 127.901 249.949 125.474H247.949C247.949 128.153 248.462 130.494 249.538 132.455L251.291 131.493ZM249.949 125.474C249.949 123.039 250.414 121.043 251.291 119.444L249.538 118.481C248.461 120.443 247.949 122.788 247.949 125.474H249.949ZM251.29 119.447C252.19 117.82 253.388 116.609 254.887 115.781L253.92 114.03C252.07 115.051 250.61 116.545 249.54 118.479L251.29 119.447ZM254.887 115.781C256.399 114.946 258.113 114.519 260.051 114.519V112.519C257.807 112.519 255.756 113.017 253.92 114.03L254.887 115.781ZM260.051 114.519C261.981 114.519 263.691 114.946 265.204 115.781L266.171 114.03C264.336 113.017 262.288 112.519 260.051 112.519V114.519ZM265.206 115.782C266.712 116.61 267.913 117.821 268.812 119.447L270.563 118.479C269.492 116.543 268.027 115.05 266.169 114.029L265.206 115.782ZM268.812 119.447C269.697 121.045 270.165 123.04 270.165 125.474H272.165C272.165 122.787 271.648 120.441 270.563 118.479L268.812 119.447ZM266.415 125.474C266.415 123.87 266.187 122.451 265.691 121.251L263.843 122.015C264.211 122.906 264.415 124.048 264.415 125.474H266.415ZM265.694 121.257C265.207 120.058 264.478 119.094 263.483 118.427L262.37 120.089C262.98 120.498 263.478 121.117 263.84 122.009L265.694 121.257ZM263.486 118.43C262.499 117.762 261.338 117.451 260.051 117.451V119.451C261.007 119.451 261.762 119.678 262.366 120.086L263.486 118.43ZM260.051 117.451C258.77 117.451 257.611 117.763 256.62 118.427L257.733 120.089C258.347 119.677 259.105 119.451 260.051 119.451V117.451ZM256.62 118.427C255.626 119.093 254.894 120.055 254.4 121.251L256.248 122.015C256.618 121.12 257.12 120.499 257.733 120.089L256.62 118.427ZM254.397 121.257C253.911 122.455 253.688 123.872 253.688 125.474H255.688C255.688 124.046 255.888 122.902 256.25 122.009L254.397 121.257ZM253.688 125.474C253.688 127.076 253.911 128.493 254.397 129.691L256.25 128.939C255.888 128.046 255.688 126.902 255.688 125.474H253.688ZM254.4 129.697C254.894 130.893 255.626 131.855 256.62 132.521L257.733 130.859C257.12 130.449 256.618 129.828 256.248 128.933L254.4 129.697ZM256.62 132.521C257.611 133.185 258.77 133.497 260.051 133.497V131.497C259.105 131.497 258.347 131.271 257.733 130.859L256.62 132.521ZM260.051 133.497C261.338 133.497 262.499 133.186 263.486 132.518L262.366 130.862C261.762 131.27 261.007 131.497 260.051 131.497V133.497ZM263.483 132.521C264.478 131.854 265.207 130.89 265.694 129.691L263.84 128.939C263.478 129.831 262.98 130.45 262.37 130.859L263.483 132.521ZM265.691 129.697C266.187 128.497 266.415 127.078 266.415 125.474H264.415C264.415 126.9 264.211 128.042 263.843 128.933L265.691 129.697ZM274.449 137.11H273.449V138.11H274.449V137.11ZM274.449 113.838V112.838H273.449V113.838H274.449ZM288.574 114.781L288.129 115.676L288.135 115.679L288.574 114.781ZM291.517 117.463L290.656 117.971L290.658 117.974L291.517 117.463ZM291.494 125.701L292.341 126.233L292.343 126.231L291.494 125.701ZM288.494 128.269L288.905 129.181L288.909 129.179L288.494 128.269ZM277.812 129.144H276.812V130.144H277.812V129.144ZM277.812 124.713V123.713H276.812V124.713H277.812ZM284.972 124.383L285.332 125.316L285.339 125.313L284.972 124.383ZM286.278 123.36L287.117 123.905L287.121 123.899L286.278 123.36ZM286.278 119.804L285.428 120.33L285.432 120.336L286.278 119.804ZM284.972 118.735L284.584 119.657L284.594 119.661L284.972 118.735ZM280.074 118.372V117.372H279.074V118.372H280.074ZM280.074 137.11V138.11H281.074V137.11H280.074ZM287.551 126.474L288.429 125.996L288.145 125.474H287.551V126.474ZM293.347 137.11V138.11H295.03L294.225 136.632L293.347 137.11ZM287.21 137.11L286.328 137.582L286.611 138.11H287.21V137.11ZM281.528 126.474V125.474H279.86L280.646 126.945L281.528 126.474ZM275.449 137.11V113.838H273.449V137.11H275.449ZM274.449 114.838H284.062V112.838H274.449V114.838ZM284.062 114.838C285.686 114.838 287.03 115.13 288.129 115.676L289.019 113.885C287.587 113.174 285.924 112.838 284.062 112.838V114.838ZM288.135 115.679C289.24 116.219 290.071 116.981 290.656 117.971L292.378 116.954C291.584 115.611 290.453 114.585 289.012 113.882L288.135 115.679ZM290.658 117.974C291.24 118.952 291.551 120.144 291.551 121.588H293.551C293.551 119.849 293.173 118.291 292.377 116.951L290.658 117.974ZM291.551 121.588C291.551 123.054 291.232 124.233 290.646 125.172L292.343 126.231C293.166 124.912 293.551 123.348 293.551 121.588H291.551ZM290.648 125.169C290.055 126.112 289.211 126.843 288.079 127.36L288.909 129.179C290.368 128.514 291.525 127.532 292.341 126.233L290.648 125.169ZM288.084 127.358C286.945 127.87 285.557 128.144 283.892 128.144V130.144C285.772 130.144 287.453 129.835 288.905 129.181L288.084 127.358ZM283.892 128.144H277.812V130.144H283.892V128.144ZM278.812 129.144V124.713H276.812V129.144H278.812ZM277.812 125.713H282.847V123.713H277.812V125.713ZM282.847 125.713C283.773 125.713 284.613 125.594 285.332 125.316L284.611 123.45C284.193 123.612 283.617 123.713 282.847 123.713V125.713ZM285.339 125.313C286.079 125.021 286.693 124.558 287.117 123.905L285.44 122.815C285.273 123.072 285.015 123.291 284.604 123.453L285.339 125.313ZM287.121 123.899C287.547 123.233 287.722 122.44 287.722 121.588H285.722C285.722 122.175 285.601 122.563 285.436 122.822L287.121 123.899ZM287.722 121.588C287.722 120.735 287.546 119.941 287.125 119.271L285.432 120.336C285.601 120.605 285.722 121.001 285.722 121.588H287.722ZM287.129 119.277C286.71 118.601 286.099 118.115 285.349 117.809L284.594 119.661C284.996 119.825 285.256 120.052 285.428 120.33L287.129 119.277ZM285.36 117.814C284.626 117.505 283.777 117.372 282.847 117.372V119.372C283.598 119.372 284.165 119.481 284.584 119.657L285.36 117.814ZM282.847 117.372H280.074V119.372H282.847V117.372ZM279.074 118.372V137.11H281.074V118.372H279.074ZM280.074 136.11H274.449V138.11H280.074V136.11ZM286.673 126.952L292.468 137.589L294.225 136.632L288.429 125.996L286.673 126.952ZM293.347 136.11H287.21V138.11H293.347V136.11ZM288.092 136.639L282.41 126.003L280.646 126.945L286.328 137.582L288.092 136.639ZM281.528 127.474H287.551V125.474H281.528V127.474ZM295.636 137.11H294.636V138.11H295.636V137.11ZM295.636 113.838V112.838H294.636V113.838H295.636ZM301.261 113.838H302.261V112.838H301.261V113.838ZM301.261 123.679H300.261V124.679H301.261V123.679ZM301.568 123.679V124.679H302.056L302.356 124.294L301.568 123.679ZM309.261 113.838V112.838H308.774L308.474 113.222L309.261 113.838ZM315.886 113.838L316.669 114.46L317.958 112.838H315.886V113.838ZM307.636 124.224L306.853 123.602L306.405 124.166L306.799 124.77L307.636 124.224ZM316.034 137.11V138.11H317.879L316.872 136.564L316.034 137.11ZM309.307 137.11L308.462 137.646L308.757 138.11H309.307V137.11ZM303.511 127.963L304.356 127.427L303.602 126.237L302.727 127.342L303.511 127.963ZM301.261 130.804L300.477 130.183L300.261 130.455V130.804H301.261ZM301.261 137.11V138.11H302.261V137.11H301.261ZM296.636 137.11V113.838H294.636V137.11H296.636ZM295.636 114.838H301.261V112.838H295.636V114.838ZM300.261 113.838V123.679H302.261V113.838H300.261ZM301.261 124.679H301.568V122.679H301.261V124.679ZM302.356 124.294L310.049 114.454L308.474 113.222L300.78 123.063L302.356 124.294ZM309.261 114.838H315.886V112.838H309.261V114.838ZM315.103 113.216L306.853 123.602L308.419 124.846L316.669 114.46L315.103 113.216ZM306.799 124.77L315.196 137.656L316.872 136.564L308.474 123.678L306.799 124.77ZM316.034 136.11H309.307V138.11H316.034V136.11ZM310.152 136.575L304.356 127.427L302.667 128.498L308.462 137.646L310.152 136.575ZM302.727 127.342L300.477 130.183L302.045 131.424L304.295 128.583L302.727 127.342ZM300.261 130.804V137.11H302.261V130.804H300.261ZM301.261 136.11H295.636V138.11H301.261V136.11Z" fill="#125487" mask="url(#path-1-inside-1_220_120)"/>
</g>
<g filter="url(#filter1_d_220_120)">
<path d="M16.733 23.0931L69.527 138.032C70.0127 139.089 71.0208 139.824 72.1908 139.973L72.4173 140.001C73.5471 140.145 74.6634 139.653 75.3065 138.729C75.9096 137.861 76.0036 136.745 75.5537 135.792L21.3458 20.9416L25.4453 12.3401L84.8023 137.511C84.9976 137.923 85.2823 138.287 85.6363 138.579L85.8724 138.774C87.0688 139.761 88.8498 139.618 89.8678 138.454C90.0519 138.243 90.2032 138.007 90.3167 137.752L102.445 110.568C103.013 109.294 103.009 107.844 102.436 106.573L67.2023 28.5413C66.7393 27.5159 65.7055 26.8549 64.5646 26.8549C63.4886 26.8549 62.5019 27.4437 62.0049 28.3824L61.9423 28.5005C61.5038 29.3287 61.474 30.3086 61.8616 31.1611L97.0505 108.568L88.0316 130.341L28.3756 4.95864C28.2455 4.68528 28.0645 4.43833 27.8419 4.23058C26.6481 3.11644 24.6997 3.45046 23.9595 4.89612L16.8243 18.8328C16.1415 20.1665 16.108 21.7323 16.733 23.0931Z" fill="#125487"/>
<path d="M73.5467 15.579L70.143 6.91512C69.3941 5.00888 67.5302 3.75196 65.4524 3.75197L39.6551 3.75208C38.674 3.75209 37.7993 4.36005 37.4718 5.26964C36.938 6.75215 38.056 8.30805 39.6551 8.30805L64.8011 8.30805L66.1676 11.5337L68.0807 15.579L41.5479 15.579C41.1781 15.579 40.9347 15.9584 41.094 16.2866L43.4836 21.2103L85.4632 109.078C85.8621 109.913 86.7213 110.441 87.6593 110.428C88.7538 110.412 89.6971 109.666 89.9483 108.619L90.0037 108.387C90.1425 107.808 90.0794 107.2 89.8243 106.66L48.6763 19.5975H70.6624C72.7771 19.5975 74.2548 17.5388 73.5467 15.579Z" fill="#125487"/>
<path d="M73.5937 15.562L73.5932 15.5607L70.1895 6.89684C69.433 4.97109 67.5504 3.70196 65.4524 3.70197L39.6551 3.70208C38.6533 3.70209 37.7596 4.32288 37.4248 5.2527C36.8788 6.76893 38.0226 8.35805 39.6551 8.35805L64.768 8.35805L66.1215 11.5532L66.1215 11.5532L66.1224 11.5551L68.0017 15.529L41.5479 15.529C41.1425 15.529 40.8731 15.9458 41.0491 16.3084L43.4385 21.2319L43.4387 21.2321L85.4181 109.1C85.8256 109.953 86.7029 110.492 87.66 110.478C88.7768 110.462 89.7403 109.701 89.9969 108.63L90.0523 108.399C90.1938 107.809 90.1294 107.189 89.8695 106.639L48.7553 19.6475H70.6624C72.8106 19.6475 74.314 17.5555 73.5937 15.562ZM16.6876 23.114L69.4816 138.053C69.9746 139.126 70.9976 139.871 72.1845 140.022L72.411 140.051C73.559 140.197 74.6937 139.697 75.3476 138.757C75.9609 137.875 76.0564 136.74 75.5989 135.771L21.4012 20.9417L25.4452 12.4566L84.7572 137.532C84.9556 137.951 85.2448 138.321 85.6045 138.618L85.8406 138.813C87.0577 139.817 88.8696 139.672 89.9054 138.487C90.0928 138.272 90.2468 138.032 90.3623 137.773L102.49 110.588C103.064 109.301 103.061 107.837 102.481 106.553L67.2479 28.5208C66.7766 27.4771 65.7248 26.8049 64.5646 26.8049C63.4703 26.8049 62.4665 27.4036 61.9607 28.359L61.8981 28.4771C61.4523 29.319 61.4221 30.3152 61.8161 31.1818L96.996 108.569L88.0284 130.218L28.4207 4.93716C28.2879 4.65809 28.1032 4.40604 27.876 4.19403C26.6582 3.0575 24.6705 3.39776 23.915 4.87333L16.7798 18.81C16.09 20.1574 16.0561 21.7392 16.6876 23.114Z" stroke="#CDCDCD" stroke-width="0.1"/>
</g>
<g filter="url(#filter2_d_220_120)">
<path d="M110.403 94.3164L110.319 94.2637C109.843 93.9652 109.464 93.5488 109.223 93.0605L88.1063 50.1808C88.0419 50.05 88.0418 49.8991 88.1059 49.7681L102.245 23.7495C102.431 23.371 102.745 23.0612 103.138 22.8689C103.381 22.75 103.647 22.6794 103.92 22.6614L104.13 22.6476C104.943 22.5941 105.719 22.9752 106.137 23.6334C106.492 24.1922 106.542 24.8772 106.271 25.4762L93.6943 49.9745L112.148 88.4534L144.808 18.9706L141.116 12.0215L114.517 65.274C113.855 66.5991 112.124 67.0994 110.786 66.3523C109.623 65.7028 109.171 64.3303 109.739 63.1756L138.546 4.68503C138.877 4.01233 139.521 3.52182 140.289 3.3566C141.44 3.10909 142.62 3.63808 143.141 4.63468L150.946 19.5612C151.016 19.6948 151.018 19.8509 150.951 19.9859L114.734 93.173C114.528 93.5893 114.216 93.9513 113.825 94.2269C112.82 94.9364 111.448 94.9722 110.403 94.3164Z" fill="white" shape-rendering="crispEdges"/>
<path d="M104.28 51.4502L104.189 51.4296C103.192 51.2021 102.49 50.3618 102.49 49.396C102.49 49.0996 102.556 48.8066 102.686 48.5364L124.766 5.37826H102.328L98.068 13.931L108.329 13.931C109.116 13.931 109.816 14.4028 110.069 15.1042C110.15 15.3283 110.181 15.5656 110.16 15.8015L110.156 15.8537C110.066 16.8816 109.153 17.6728 108.057 17.6728L96.1687 17.6728C94.2373 17.6728 92.6717 16.1995 92.6717 14.382C92.6717 13.9087 92.7802 13.441 92.9897 13.0108L98.781 1.12133C98.8661 0.946536 99.0517 0.834473 99.256 0.834473L126.086 0.834511C128.599 0.834511 130.619 3.94246 128.234 8.56468L106.967 50.214C106.504 51.1806 105.375 51.7 104.28 51.4502Z" fill="white" shape-rendering="crispEdges"/>
<path d="M3.78101 98.5657L40.9017 98.3506C42.7103 98.3506 43.8042 100.287 42.7811 101.69C42.3574 102.272 41.6507 102.627 40.9017 102.627H6.69308L10.2312 109.312H41.7813C43.8659 109.312 45.7512 110.478 46.5782 112.278L49.9159 119.546C51.407 122.792 48.8775 126.414 45.119 126.414H18.3378L21.746 133.096H55.0635C56.0418 133.096 56.9234 133.652 57.2958 134.503C57.9501 135.998 56.7819 137.64 55.0635 137.64H21.1134C19.0751 137.64 17.2228 136.524 16.3686 134.783L11.6114 125.083C11.2025 124.25 11.2832 123.276 11.8244 122.512C12.3449 121.777 13.221 121.336 14.1592 121.336H45.6036L42.7634 114.654H10.8904C8.85125 114.654 6.99834 113.538 6.14466 111.795L1.25032 101.804C1.09378 101.485 0.956888 101.133 1.01271 100.785C1.1941 99.6556 2.3523 98.5657 3.78101 98.5657Z" fill="white" shape-rendering="crispEdges"/>
<path d="M87.8863 49.6487L87.8861 49.6486L87.8815 49.6581C87.7832 49.8586 87.7834 50.0909 87.8821 50.2913L108.999 93.1709C109.261 93.7022 109.672 94.1532 110.186 94.4755L110.27 94.5281L110.403 94.3164L110.27 94.5281C111.401 95.2374 112.881 95.199 113.969 94.4311C114.393 94.1323 114.733 93.7386 114.958 93.2839L151.175 20.0968C151.278 19.8901 151.275 19.6496 151.168 19.4453L143.363 4.51884C142.786 3.41629 141.49 2.84258 140.236 3.11219C139.398 3.2926 138.689 3.82963 138.322 4.57457L109.515 63.0651C108.884 64.3459 109.391 65.8599 110.664 66.5705C112.119 67.3829 114.011 66.846 114.741 65.3858L141.123 12.5673L144.529 18.9775L112.145 87.8705L93.9734 49.9783L106.493 25.5904L106.494 25.5906L106.499 25.5794C106.805 24.9028 106.748 24.1287 106.348 23.4993C105.878 22.7597 105.013 22.3389 104.113 22.3982L103.904 22.412C103.599 22.4321 103.301 22.511 103.028 22.6444C102.589 22.8593 102.235 23.2065 102.023 23.6346L87.8863 49.6487ZM102.463 48.4226L102.463 48.4225L102.46 48.4285C102.315 48.732 102.24 49.0618 102.24 49.396C102.24 50.4881 103.032 51.4221 104.134 51.6733L104.224 51.694C105.424 51.9677 106.673 51.4021 107.191 50.3248C107.191 50.3239 107.192 50.3229 107.192 50.322L128.456 8.67929C128.456 8.67917 128.456 8.67905 128.456 8.67894C129.671 6.32474 129.784 4.31641 129.23 2.87655C128.675 1.43355 127.455 0.584511 126.086 0.584511L99.256 0.584473C98.9622 0.584473 98.6858 0.745669 98.5562 1.01185L92.765 12.9013C92.539 13.3652 92.4217 13.8703 92.4217 14.382C92.4217 16.3516 94.1138 17.9228 96.1687 17.9228L108.057 17.9228C109.27 17.9228 110.303 17.0447 110.405 15.8754L110.409 15.8232C110.433 15.551 110.397 15.2774 110.304 15.0194C110.013 14.2117 109.214 13.681 108.329 13.681L98.4719 13.681L102.483 5.62826H124.357L102.463 48.4226ZM40.9017 98.1005L40.9002 98.1006L3.78101 98.3157C2.23194 98.3157 0.967114 99.4924 0.765877 100.745C0.696532 101.177 0.86814 101.592 1.0258 101.914L5.92015 111.905C6.81845 113.739 8.76197 114.904 10.8904 114.904H42.598L45.2257 121.086H14.1592C13.144 121.086 12.19 121.563 11.6204 122.367C11.0268 123.205 10.9373 124.277 11.387 125.193L16.1442 134.893C17.043 136.725 18.9858 137.89 21.1134 137.89H55.0635C56.9379 137.89 58.2609 136.085 57.5249 134.403C57.1099 133.454 56.1343 132.846 55.0635 132.846H21.8992L18.746 126.664H45.119C49.0351 126.664 51.7203 122.875 50.1431 119.441L46.8054 112.174C45.9349 110.279 43.9571 109.062 41.7813 109.062H10.3818L7.10826 102.877H40.9017C41.7279 102.877 42.5108 102.486 42.9832 101.838C44.145 100.244 42.8829 98.1006 40.9017 98.1005Z" stroke="#0036BE" stroke-opacity="0.59" stroke-width="0.5" shape-rendering="crispEdges"/>
</g>
<defs>
<filter id="filter0_d_220_120" x="103.75" y="113.52" width="214.284" height="23.9089" filterUnits="userSpaceOnUse" color-interpolation-filters="sRGB">
<feFlood flood-opacity="0" result="BackgroundImageFix"/>
<feColorMatrix in="SourceAlpha" type="matrix" values="0 0 0 0 0 0 0 0 0 0 0 0 0 0 0 0 0 0 127 0" result="hardAlpha"/>
<feOffset dx="2"/>
<feComposite in2="hardAlpha" operator="out"/>
<feColorMatrix type="matrix" values="0 0 0 0 0 0 0 0 0 0.283334 0 0 0 0 1 0 0 0 0.74 0"/>
<feBlend mode="normal" in2="BackgroundImageFix" result="effect1_dropShadow_220_120"/>
<feBlend mode="normal" in="SourceGraphic" in2="effect1_dropShadow_220_120" result="shape"/>
</filter>
<filter id="filter1_d_220_120" x="16.187" y="3.46704" width="88.7812" height="137.659" filterUnits="userSpaceOnUse" color-interpolation-filters="sRGB">
<feFlood flood-opacity="0" result="BackgroundImageFix"/>
<feColorMatrix in="SourceAlpha" type="matrix" values="0 0 0 0 0 0 0 0 0 0 0 0 0 0 0 0 0 0 127 0" result="hardAlpha"/>
<feOffset dx="2" dy="1"/>
<feComposite in2="hardAlpha" operator="out"/>
<feColorMatrix type="matrix" values="0 0 0 0 0 0 0 0 0 0.211319 0 0 0 0 0.745833 0 0 0 0.78 0"/>
<feBlend mode="normal" in2="BackgroundImageFix" result="effect1_dropShadow_220_120"/>
<feBlend mode="normal" in="SourceGraphic" in2="effect1_dropShadow_220_120" result="shape"/>
</filter>
<filter id="filter2_d_220_120" x="0.5" y="0.334473" width="154" height="138.305" filterUnits="userSpaceOnUse" color-interpolation-filters="sRGB">
<feFlood flood-opacity="0" result="BackgroundImageFix"/>
<feColorMatrix in="SourceAlpha" type="matrix" values="0 0 0 0 0 0 0 0 0 0 0 0 0 0 0 0 0 0 127 0" result="hardAlpha"/>
<feOffset dx="3" dy="0.5"/>
<feComposite in2="hardAlpha" operator="out"/>
<feColorMatrix type="matrix" values="0 0 0 0 0 0 0 0 0 0.211319 0 0 0 0 0.745833 0 0 0 0.78 0"/>
<feBlend mode="normal" in2="BackgroundImageFix" result="effect1_dropShadow_220_120"/>
<feBlend mode="normal" in="SourceGraphic" in2="effect1_dropShadow_220_120" result="shape"/>
</filter>
</defs>
</svg>
