<svg width="2626" height="2045" viewBox="0 0 2626 2045" fill="none" xmlns="http://www.w3.org/2000/svg">
<path opacity="0.02" d="M93.1525 883.947C-28.8098 794.807 -4.86799 689.518 22.3482 648.016L396.42 0.104193L2625.78 1287.23L2251.71 1935.14C2229.37 1979.46 2150.16 2052.84 2011.98 1991.78C1839.26 1915.47 1808.18 1979.45 1754.56 2014.81C1700.95 2050.17 1632.68 2077.08 1516.33 1957.24C1399.99 1837.4 1271.37 1745.59 1113.31 1779.17C986.872 1806.03 901.436 1768.02 871.824 1750.92C842.211 1733.83 766.573 1678.84 726.618 1555.91C676.674 1402.24 532.851 1336.76 370.895 1295.92C208.939 1255.08 198.106 1182.51 201.922 1118.39C205.738 1054.28 245.605 995.372 93.1525 883.947Z" fill="black"/>
</svg>
