<svg width="1593" height="2337" viewBox="0 0 1593 2337" fill="none" xmlns="http://www.w3.org/2000/svg">
<path d="M93.1775 434.619C59.0334 307.542 132.75 249.133 173.877 235.813L781.431 0.135126L1592.36 2090.63L984.806 2326.31C945.456 2344.21 851.634 2350.79 791.152 2233.93C715.549 2087.85 659.534 2114.32 603.836 2109.06C548.138 2103.81 487.112 2084.81 473.533 1939.96C459.955 1795.11 422.75 1662.58 297.127 1599.12C196.63 1548.35 159.378 1475.92 148.606 1448.15C137.835 1420.38 116.496 1341.77 156.467 1236.51C206.431 1104.94 144.534 981.988 56.8799 865.872C-30.7744 749.755 1.48002 694.577 39.0624 653.135C76.6449 611.693 135.858 593.465 93.1775 434.619Z" fill="black"/>
<path d="M93.1775 434.619C59.0334 307.542 132.75 249.133 173.877 235.813L781.431 0.135126L1592.36 2090.63L984.806 2326.31C945.456 2344.21 851.634 2350.79 791.152 2233.93C715.549 2087.85 659.534 2114.32 603.836 2109.06C548.138 2103.81 487.112 2084.81 473.533 1939.96C459.955 1795.11 422.75 1662.58 297.127 1599.12C196.63 1548.35 159.378 1475.92 148.606 1448.15C137.835 1420.38 116.496 1341.77 156.467 1236.51C206.431 1104.94 144.534 981.988 56.8799 865.872C-30.7744 749.755 1.48002 694.577 39.0624 653.135C76.6449 611.693 135.858 593.465 93.1775 434.619Z" fill="url(#paint0_linear_220_84)"/>
<defs>
<linearGradient id="paint0_linear_220_84" x1="728.095" y1="20.6695" x2="628.591" y2="2682.46" gradientUnits="userSpaceOnUse">
<stop stop-color="#1802BE"/>
<stop offset="0.505208" stop-color="#0099FF"/>
<stop offset="0.964" stop-color="#125487"/>
</linearGradient>
</defs>
</svg>
