<svg width="54" height="55" viewBox="0 0 54 55" fill="none" xmlns="http://www.w3.org/2000/svg">
<path d="M12 15C10.5166 15 9.06659 14.5601 7.83322 13.736C6.59985 12.9119 5.63856 11.7406 5.0709 10.3701C4.50325 8.99968 4.35472 7.49168 4.64411 6.03683C4.9335 4.58197 5.6478 3.2456 6.6967 2.1967C7.74559 1.14781 9.08197 0.433503 10.5368 0.144114C11.9917 -0.145275 13.4997 0.00324961 14.8701 0.570907C16.2406 1.13856 17.4119 2.09986 18.236 3.33323C19.0601 4.5666 19.5 6.01664 19.5 7.5C19.5 9.48913 18.7098 11.3968 17.3033 12.8033C15.8968 14.2098 13.9891 15 12 15ZM12 3.75C11.2583 3.75 10.5333 3.96994 9.91661 4.38199C9.29993 4.79405 8.81928 5.37972 8.53545 6.06494C8.25162 6.75016 8.17736 7.50416 8.32205 8.23159C8.46675 8.95902 8.8239 9.62721 9.34835 10.1517C9.8728 10.6761 10.541 11.0333 11.2684 11.1779C11.9958 11.3226 12.7498 11.2484 13.4351 10.9646C14.1203 10.6807 14.706 10.2001 15.118 9.58339C15.5301 8.96671 15.75 8.24168 15.75 7.5C15.75 6.50544 15.3549 5.55161 14.6516 4.84835C13.9484 4.14509 12.9946 3.75 12 3.75ZM42 15C40.5166 15 39.0666 14.5601 37.8332 13.736C36.5999 12.9119 35.6386 11.7406 35.0709 10.3701C34.5032 8.99968 34.3547 7.49168 34.6441 6.03683C34.9335 4.58197 35.6478 3.2456 36.6967 2.1967C37.7456 1.14781 39.082 0.433503 40.5368 0.144114C41.9917 -0.145275 43.4997 0.00324961 44.8701 0.570907C46.2406 1.13856 47.4119 2.09986 48.236 3.33323C49.0601 4.5666 49.5 6.01664 49.5 7.5C49.5 9.48913 48.7098 11.3968 47.3033 12.8033C45.8968 14.2098 43.9891 15 42 15ZM42 3.75C41.2583 3.75 40.5333 3.96994 39.9166 4.38199C39.2999 4.79405 38.8193 5.37972 38.5354 6.06494C38.2516 6.75016 38.1774 7.50416 38.3221 8.23159C38.4668 8.95902 38.8239 9.62721 39.3484 10.1517C39.8728 10.6761 40.541 11.0333 41.2684 11.1779C41.9958 11.3226 42.7498 11.2484 43.4351 10.9646C44.1203 10.6807 44.706 10.2001 45.118 9.58339C45.5301 8.96671 45.75 8.24168 45.75 7.5C45.75 6.50544 45.3549 5.55161 44.6516 4.84835C43.9484 4.14509 42.9946 3.75 42 3.75ZM45.75 54.375H38.25C37.2554 54.375 36.3016 53.9799 35.5984 53.2767C34.8951 52.5734 34.5 51.6196 34.5 50.625V37.5H38.25V50.625H45.75V33.75H49.5V22.5C49.5 22.0027 49.3025 21.5258 48.9508 21.1742C48.5992 20.8225 48.1223 20.625 47.625 20.625H35.5875L27 35.625L18.4125 20.625H6.375C5.87772 20.625 5.40081 20.8225 5.04918 21.1742C4.69754 21.5258 4.5 22.0027 4.5 22.5V33.75H8.25V50.625H15.75V37.5H19.5V50.625C19.5 51.6196 19.1049 52.5734 18.4016 53.2767C17.6984 53.9799 16.7446 54.375 15.75 54.375H8.25C7.25544 54.375 6.30161 53.9799 5.59835 53.2767C4.89509 52.5734 4.5 51.6196 4.5 50.625V37.5C3.50544 37.5 2.55161 37.1049 1.84835 36.4017C1.14509 35.6984 0.75 34.7446 0.75 33.75V22.5C0.75 21.0082 1.34263 19.5774 2.39752 18.5225C3.45242 17.4676 4.88316 16.875 6.375 16.875H20.5875L27 28.125L33.4125 16.875H47.625C49.1168 16.875 50.5476 17.4676 51.6025 18.5225C52.6574 19.5774 53.25 21.0082 53.25 22.5V33.75C53.25 34.7446 52.8549 35.6984 52.1516 36.4017C51.4484 37.1049 50.4946 37.5 49.5 37.5V50.625C49.5 51.6196 49.1049 52.5734 48.4016 53.2767C47.6984 53.9799 46.7446 54.375 45.75 54.375Z" fill="white"/>
<path d="M12.25 15.125C10.7666 15.125 9.31659 14.6851 8.08322 13.861C6.84985 13.0369 5.88856 11.8656 5.3209 10.4951C4.75325 9.12468 4.60472 7.61668 4.89411 6.16183C5.1835 4.70697 5.8978 3.3706 6.9467 2.3217C7.99559 1.27281 9.33197 0.558503 10.7868 0.269114C12.2417 -0.0202754 13.7497 0.12825 15.1201 0.695907C16.4906 1.26356 17.6619 2.22486 18.486 3.45823C19.3101 4.6916 19.75 6.14164 19.75 7.625C19.75 9.61413 18.9598 11.5218 17.5533 12.9283C16.1468 14.3348 14.2391 15.125 12.25 15.125ZM12.25 3.875C11.5083 3.875 10.7833 4.09494 10.1666 4.50699C9.54993 4.91905 9.06928 5.50472 8.78545 6.18994C8.50162 6.87516 8.42736 7.62916 8.57205 8.35659C8.71675 9.08402 9.0739 9.75221 9.59835 10.2767C10.1228 10.8011 10.791 11.1583 11.5184 11.3029C12.2458 11.4476 12.9998 11.3734 13.6851 11.0896C14.3703 10.8057 14.956 10.3251 15.368 9.70839C15.7801 9.09171 16 8.36668 16 7.625C16 6.63044 15.6049 5.67661 14.9016 4.97335C14.1984 4.27009 13.2446 3.875 12.25 3.875ZM42.25 15.125C40.7666 15.125 39.3166 14.6851 38.0832 13.861C36.8499 13.0369 35.8886 11.8656 35.3209 10.4951C34.7532 9.12468 34.6047 7.61668 34.8941 6.16183C35.1835 4.70697 35.8978 3.3706 36.9467 2.3217C37.9956 1.27281 39.332 0.558503 40.7868 0.269114C42.2417 -0.0202754 43.7497 0.12825 45.1201 0.695907C46.4906 1.26356 47.6619 2.22486 48.486 3.45823C49.3101 4.6916 49.75 6.14164 49.75 7.625C49.75 9.61413 48.9598 11.5218 47.5533 12.9283C46.1468 14.3348 44.2391 15.125 42.25 15.125ZM42.25 3.875C41.5083 3.875 40.7833 4.09494 40.1666 4.50699C39.5499 4.91905 39.0693 5.50472 38.7854 6.18994C38.5016 6.87516 38.4274 7.62916 38.5721 8.35659C38.7168 9.08402 39.0739 9.75221 39.5984 10.2767C40.1228 10.8011 40.791 11.1583 41.5184 11.3029C42.2458 11.4476 42.9998 11.3734 43.6851 11.0896C44.3703 10.8057 44.956 10.3251 45.368 9.70839C45.7801 9.09171 46 8.36668 46 7.625C46 6.63044 45.6049 5.67661 44.9016 4.97335C44.1984 4.27009 43.2446 3.875 42.25 3.875ZM46 54.5H38.5C37.5054 54.5 36.5516 54.1049 35.8484 53.4017C35.1451 52.6984 34.75 51.7446 34.75 50.75V37.625H38.5V50.75H46V33.875H49.75V22.625C49.75 22.1277 49.5525 21.6508 49.2008 21.2992C48.8492 20.9475 48.3723 20.75 47.875 20.75H35.8375L27.25 35.75L18.6625 20.75H6.625C6.12772 20.75 5.65081 20.9475 5.29918 21.2992C4.94754 21.6508 4.75 22.1277 4.75 22.625V33.875H8.5V50.75H16V37.625H19.75V50.75C19.75 51.7446 19.3549 52.6984 18.6516 53.4017C17.9484 54.1049 16.9946 54.5 16 54.5H8.5C7.50544 54.5 6.55161 54.1049 5.84835 53.4017C5.14509 52.6984 4.75 51.7446 4.75 50.75V37.625C3.75544 37.625 2.80161 37.2299 2.09835 36.5267C1.39509 35.8234 1 34.8696 1 33.875V22.625C1 21.1332 1.59263 19.7024 2.64752 18.6475C3.70242 17.5926 5.13316 17 6.625 17H20.8375L27.25 28.25L33.6625 17H47.875C49.3668 17 50.7976 17.5926 51.8525 18.6475C52.9074 19.7024 53.5 21.1332 53.5 22.625V33.875C53.5 34.8696 53.1049 35.8234 52.4016 36.5267C51.6984 37.2299 50.7446 37.625 49.75 37.625V50.75C49.75 51.7446 49.3549 52.6984 48.6516 53.4017C47.9484 54.1049 46.9946 54.5 46 54.5Z" fill="white"/>
</svg>
