<svg width="38" height="37" viewBox="0 0 38 37" fill="none" xmlns="http://www.w3.org/2000/svg">
<path d="M20.75 9.75C20.75 10.8546 19.8546 11.75 18.75 11.75C17.6454 11.75 16.75 10.8546 16.75 9.75C16.75 8.64543 17.6454 7.75 18.75 7.75C19.8546 7.75 20.75 8.64543 20.75 9.75Z" fill="white" stroke="white"/>
<path d="M18.3417 28.789L18.7494 29.3647L19.1575 28.7893L26.8992 17.8761C28.4214 15.9703 29.2504 13.6033 29.2497 11.164C29.2668 8.36002 28.1721 5.6635 26.2054 3.66483C24.2383 1.66575 21.5591 0.527738 18.7547 0.500024L18.7547 0.499871L18.7423 0.500056C16.7198 0.530241 14.7476 1.13439 13.0552 2.24214C11.3629 3.34989 10.02 4.91565 9.18316 6.75707C8.34628 8.59848 8.04977 10.6398 8.32817 12.6432C8.60557 14.6394 9.44235 16.5161 10.7415 18.0564L18.3417 28.789ZM11.7497 11.1599L11.7497 11.1575C11.731 9.27978 12.4583 7.47136 13.7718 6.12938C15.084 4.78876 16.8741 4.02309 18.7497 4.00004C20.6253 4.02309 22.4154 4.78876 23.7276 6.12938C25.0412 7.47136 25.7684 9.27978 25.7497 11.1575L25.7497 11.16C25.7414 12.8067 25.1766 14.4022 24.147 15.6874L24.1379 15.6987L24.1296 15.7105L18.751 23.2847L13.5207 15.8742L13.5072 15.8551L13.4921 15.8373C12.376 14.5336 11.7586 12.8761 11.7497 11.1599Z" fill="white" stroke="white"/>
<path d="M31.25 13H30.75V13.5V16V16.5H31.25H33.25V33H4.25V16.5H6.25H6.75V16V13.5V13H6.25H3.75C2.95435 13 2.19129 13.3161 1.62868 13.8787C1.06607 14.4413 0.75 15.2044 0.75 16V33.5C0.75 34.2957 1.06607 35.0587 1.62868 35.6213C2.19129 36.1839 2.95435 36.5 3.75 36.5H33.75C34.5456 36.5 35.3087 36.1839 35.8713 35.6213C36.4339 35.0587 36.75 34.2957 36.75 33.5V16C36.75 15.2043 36.4339 14.4413 35.8713 13.8787C35.3087 13.3161 34.5456 13 33.75 13H31.25Z" fill="white" stroke="white"/>
</svg>
