<svg width="303" height="261" viewBox="0 0 303 261" fill="none" xmlns="http://www.w3.org/2000/svg">
<g filter="url(#filter0_d_246_299)">
<path d="M32.257 42.3209L137.141 255.692C138.106 257.655 140.109 259.019 142.433 259.295L142.883 259.349C145.128 259.616 147.345 258.703 148.623 256.986C149.821 255.376 150.008 253.304 149.114 251.535L41.4211 38.3268L49.5655 22.3592L167.488 254.725C167.876 255.49 168.442 256.167 169.145 256.709L169.614 257.071C171.991 258.903 175.529 258.638 177.551 256.476C177.917 256.085 178.218 255.646 178.443 255.174L202.537 204.708C203.666 202.344 203.659 199.652 202.519 197.293L132.523 52.435C131.603 50.5313 129.549 49.3043 127.282 49.3042C125.145 49.3043 123.184 50.3973 122.197 52.1399L122.073 52.3592C121.202 53.8967 121.142 55.7158 121.912 57.2983L191.821 200.997L173.903 241.415L55.3868 8.6562C55.1284 8.14874 54.7688 7.6903 54.3266 7.30464C51.9549 5.23635 48.084 5.85642 46.6136 8.54014L32.4384 34.4122C31.0819 36.8881 31.0152 39.7947 32.257 42.3209Z" fill="#125487"/>
<path d="M145.127 28.3718L138.365 12.2882C136.877 8.74947 133.174 6.41614 129.046 6.41615L77.7955 6.41636C75.8464 6.41637 74.1087 7.54499 73.458 9.23354C72.3975 11.9857 74.6187 14.874 77.7955 14.874L127.752 14.874L130.467 20.8621L134.268 28.3718L81.5558 28.3718C80.8211 28.3718 80.3377 29.076 80.6542 29.6853L85.4015 38.8257L168.801 201.943C169.594 203.494 171.3 204.474 173.164 204.449C175.338 204.419 177.212 203.035 177.711 201.09L177.821 200.661C178.097 199.586 177.972 198.456 177.465 197.455L95.7177 35.8318H139.397C143.598 35.8318 146.534 32.0099 145.127 28.3718Z" fill="#125487"/>
<path d="M145.173 28.3537L145.173 28.3524L138.411 12.2688C136.915 8.70979 133.192 6.36614 129.046 6.36615L77.7955 6.36636C75.8278 6.36637 74.0702 7.50583 73.4114 9.21556C72.336 12.0063 74.59 14.924 77.7955 14.924L127.72 14.924L130.421 20.8828L130.422 20.8847L134.186 28.3218L81.5558 28.3218C80.7909 28.3218 80.2729 29.0596 80.6098 29.7084L85.357 38.8484L85.3572 38.8487L168.756 201.966C169.558 203.535 171.284 204.524 173.165 204.499C175.359 204.469 177.255 203.072 177.76 201.102L177.87 200.673C178.149 199.586 178.022 198.444 177.51 197.432L95.799 35.8818H139.397C143.627 35.8818 146.595 32.0304 145.173 28.3537ZM32.2121 42.343L137.096 255.715C138.069 257.694 140.087 259.067 142.427 259.345L142.877 259.398C145.138 259.667 147.374 258.748 148.663 257.016C149.872 255.39 150.061 253.299 149.159 251.512L41.4772 38.3269L49.5653 22.4694L167.443 254.748C167.835 255.519 168.405 256.202 169.114 256.748L169.583 257.11C171.98 258.958 175.548 258.691 177.588 256.51C177.957 256.115 178.261 255.672 178.488 255.195L202.582 204.73C203.718 202.352 203.711 199.644 202.564 197.271L132.568 52.4132C131.639 50.4907 129.566 49.2543 127.282 49.2542C125.128 49.2543 123.15 50.3557 122.154 52.1152L122.029 52.3345C121.15 53.8863 121.09 55.7228 121.867 57.3201L191.766 200.998L173.9 241.299L55.4314 8.63351C55.17 8.12018 54.8063 7.65669 54.3594 7.26695C51.9651 5.17891 48.0564 5.80278 46.5698 8.51611L32.3946 34.3881C31.0302 36.8783 30.9631 39.8021 32.2121 42.343Z" stroke="#CDCDCD" stroke-width="0.1"/>
</g>
<g filter="url(#filter1_d_246_299)">
<path d="M218.347 174.539L218.18 174.441C217.235 173.887 216.482 173.114 216.004 172.208L174.051 92.6062C173.923 92.3633 173.923 92.0832 174.05 91.84L202.141 43.5393C202.51 42.8366 203.133 42.2616 203.914 41.9046C204.397 41.6839 204.926 41.5528 205.468 41.5194L205.884 41.4938C207.5 41.3944 209.042 42.1018 209.873 43.3238C210.578 44.3612 210.677 45.6328 210.138 46.7448L185.153 92.2233L221.813 163.655L286.699 34.6679L279.364 21.7676L226.521 120.625C225.206 123.085 221.767 124.014 219.108 122.627C216.798 121.421 215.899 118.873 217.029 116.73L274.258 8.14815C274.916 6.89935 276.195 5.98878 277.721 5.68206C280.007 5.22258 282.352 6.2046 283.387 8.05469L298.893 35.7641C299.032 36.0121 299.036 36.3021 298.903 36.5526L226.951 172.417C226.542 173.19 225.922 173.862 225.146 174.373C223.149 175.69 220.424 175.757 218.347 174.539Z" fill="white" shape-rendering="crispEdges"/>
<path d="M206.183 94.9627L206.003 94.9244C204.021 94.5021 202.626 92.9421 202.626 91.1493C202.626 90.5991 202.759 90.0552 203.016 89.5536L246.881 9.43506H202.306L193.842 25.3123L214.227 25.3123C215.791 25.3123 217.181 26.1882 217.683 27.4902C217.844 27.9063 217.906 28.3468 217.865 28.7847L217.856 28.8816C217.677 30.7897 215.864 32.2586 213.687 32.2586L190.068 32.2586C186.232 32.2586 183.121 29.5235 183.121 26.1495C183.121 25.2709 183.337 24.4027 183.753 23.604L195.258 1.53251C195.427 1.20803 195.796 1 196.202 1L249.505 1.00007C254.498 1.00007 258.509 6.76965 253.772 15.3503L211.52 92.6678C210.601 94.4623 208.358 95.4264 206.183 94.9627Z" fill="white" shape-rendering="crispEdges"/>
<path d="M6.52494 182.428L80.2713 182.028C83.8644 182.028 86.0377 185.623 84.0052 188.228C83.1634 189.307 81.7594 189.967 80.2713 189.967H12.3102L19.3394 202.376H82.0189C86.1604 202.376 89.9057 204.541 91.5487 207.884L98.1796 221.374C101.142 227.402 96.1167 234.125 88.6497 234.125H35.4445L42.2155 246.529H108.406C110.35 246.529 112.101 247.561 112.841 249.141C114.141 251.917 111.82 254.964 108.406 254.964H40.9586C36.9091 254.964 33.2293 252.894 31.5323 249.661L22.0814 231.655C21.2691 230.107 21.4293 228.299 22.5045 226.881C23.5384 225.517 25.2791 224.698 27.143 224.698H89.6124L83.9699 212.294H20.649C16.5978 212.294 12.9167 210.222 11.2207 206.987L1.49729 188.439C1.18631 187.846 0.914352 187.193 1.02526 186.547C1.38562 184.451 3.68657 182.428 6.52494 182.428Z" fill="white" shape-rendering="crispEdges"/>
<path d="M12.7392 190.217H80.2713C81.8299 190.217 83.3093 189.527 84.2023 188.382C85.2879 186.99 85.2489 185.327 84.4619 184.022C83.6772 182.721 82.1534 181.778 80.2713 181.778H80.27L6.52494 182.178L12.7392 190.217ZM12.7392 190.217L19.4851 202.126H82.0189C86.2424 202.126 90.0824 204.334 91.7731 207.773L98.4039 221.264C99.9304 224.37 99.396 227.657 97.5259 230.16C95.6576 232.66 92.4591 234.375 88.6497 234.375H35.8658L42.3638 246.279H108.406C110.433 246.279 112.281 247.355 113.067 249.035C113.761 250.515 113.485 252.069 112.59 253.245C111.697 254.418 110.188 255.214 108.406 255.214H40.9586C36.8287 255.214 33.0566 253.103 31.311 249.777L21.86 231.771C21.0016 230.135 21.1729 228.224 22.3053 226.73C23.3912 225.298 25.2089 224.448 27.143 224.448H89.224M12.7392 190.217L89.224 224.448M89.224 224.448L83.809 212.544H20.649C16.5173 212.544 12.744 210.431 10.9993 207.103L1.27587 188.555C0.964212 187.961 0.65249 187.24 0.778871 186.505C1.1622 184.275 3.57886 182.178 6.52358 182.178L89.224 224.448ZM173.834 91.7143L173.834 91.7142L173.829 91.7239C173.663 92.0399 173.664 92.4071 173.83 92.7228L215.783 172.324C216.284 173.275 217.071 174.081 218.054 174.657L218.221 174.755C220.379 176.02 223.206 175.952 225.284 174.582C226.092 174.049 226.742 173.346 227.172 172.534L299.124 36.6696C299.296 36.3438 299.292 35.9639 299.112 35.6421L283.606 7.93261C282.511 5.97566 280.05 4.95897 277.672 5.43696C276.081 5.75677 274.734 6.70889 274.037 8.03158L216.808 116.613C215.605 118.894 216.575 121.587 218.993 122.848C221.758 124.291 225.354 123.338 226.741 120.743L279.371 22.2853L286.416 34.6751L221.811 163.103L185.436 92.2273L210.357 46.8652L210.358 46.8654L210.363 46.8538C210.942 45.6598 210.834 44.2931 210.079 43.1832C209.193 41.8803 207.562 41.1401 205.869 41.2443L205.453 41.2699C204.88 41.3051 204.321 41.4435 203.81 41.6772C202.985 42.0544 202.319 42.6646 201.922 43.4182L173.834 91.7143ZM202.796 89.4335L202.793 89.4396C202.519 89.9756 202.376 90.5585 202.376 91.1493C202.376 93.0806 203.875 94.7265 205.951 95.1689L206.13 95.2073C208.399 95.6909 210.762 94.6915 211.741 92.7847C211.742 92.7838 211.742 92.7828 211.743 92.7819L253.991 15.4711C253.991 15.471 253.991 15.4709 253.991 15.4707C256.384 11.1362 256.59 7.46767 255.518 4.86232C254.445 2.25422 252.103 0.75007 249.505 0.750071L196.202 0.75C195.715 0.750001 195.254 0.999273 195.036 1.41695L183.531 23.4884C183.097 24.3219 182.871 25.2297 182.871 26.1495C182.871 29.6908 186.125 32.5086 190.068 32.5086L213.687 32.5086C215.966 32.5086 217.912 30.9667 218.105 28.9048L218.114 28.8079C218.158 28.3311 218.091 27.8517 217.917 27.4002C217.371 25.9875 215.878 25.0623 214.227 25.0623L194.258 25.0623L202.456 9.68506H246.459L202.796 89.4335Z" stroke="#0036BE" stroke-opacity="0.59" stroke-width="0.5" shape-rendering="crispEdges"/>
</g>
<defs>
<filter id="filter0_d_246_299" x="31.2715" y="5.97314" width="174.207" height="254.521" filterUnits="userSpaceOnUse" color-interpolation-filters="sRGB">
<feFlood flood-opacity="0" result="BackgroundImageFix"/>
<feColorMatrix in="SourceAlpha" type="matrix" values="0 0 0 0 0 0 0 0 0 0 0 0 0 0 0 0 0 0 127 0" result="hardAlpha"/>
<feOffset dx="2" dy="1"/>
<feComposite in2="hardAlpha" operator="out"/>
<feColorMatrix type="matrix" values="0 0 0 0 0 0 0 0 0 0.211319 0 0 0 0 0.745833 0 0 0 0.78 0"/>
<feBlend mode="normal" in2="BackgroundImageFix" result="effect1_dropShadow_246_299"/>
<feBlend mode="normal" in="SourceGraphic" in2="effect1_dropShadow_246_299" result="shape"/>
</filter>
<filter id="filter1_d_246_299" x="0.5" y="0.5" width="302" height="255.464" filterUnits="userSpaceOnUse" color-interpolation-filters="sRGB">
<feFlood flood-opacity="0" result="BackgroundImageFix"/>
<feColorMatrix in="SourceAlpha" type="matrix" values="0 0 0 0 0 0 0 0 0 0 0 0 0 0 0 0 0 0 127 0" result="hardAlpha"/>
<feOffset dx="3" dy="0.5"/>
<feComposite in2="hardAlpha" operator="out"/>
<feColorMatrix type="matrix" values="0 0 0 0 0 0 0 0 0 0.211319 0 0 0 0 0.745833 0 0 0 0.78 0"/>
<feBlend mode="normal" in2="BackgroundImageFix" result="effect1_dropShadow_246_299"/>
<feBlend mode="normal" in="SourceGraphic" in2="effect1_dropShadow_246_299" result="shape"/>
</filter>
</defs>
</svg>
