<svg width="1729" height="640" viewBox="0 0 1729 640" fill="none" xmlns="http://www.w3.org/2000/svg">
<path d="M211.5 149.556C144.5 182.463 16.5 330.969 0 350.798V717H1729V110.742C1555 136.899 1458 -10.763 1359 0.628069C1313 6.53455 1276.5 54.6303 1247.5 60.9587C1218.5 67.2871 1209.5 36.9109 1177.5 39.8641C1145.5 42.8174 1120.5 80.7876 1097 106.945C1073.5 133.102 986.5 197.23 900.5 210.308C814.5 223.387 726.5 179.51 663.5 135.634C600.5 91.7568 547 120.867 513 126.774C479 132.68 443.5 82.4751 388.5 85.8502C333.5 89.2253 278.5 116.648 211.5 149.556Z" fill="url(#paint0_linear_246_245)" fill-opacity="0.7"/>
<defs>
<linearGradient id="paint0_linear_246_245" x1="865" y1="166" x2="864.314" y2="285.496" gradientUnits="userSpaceOnUse">
<stop stop-color="#E0998C"/>
<stop offset="1" stop-color="#E2C0A0"/>
</linearGradient>
</defs>
</svg>
