<svg width="68" height="1270" viewBox="0 0 68 1270" fill="none" xmlns="http://www.w3.org/2000/svg">
<path opacity="0.12" d="M1.00049 1270L1.00049 1253.96M1.00049 794.154L1.00049 1253.96M1.00049 1253.96C0.913084 1235.73 12.5906 1199.28 60 1199.28M1.00049 854.422C0.913084 836.195 12.5906 799.743 60 799.743M1.00049 850.092L1.00049 458.55M1.00049 458.55V458.142M1.00049 458.55C0.999843 458.415 0.999839 458.279 1.00049 458.142M1.00049 458.142L1.00049 398.282M1.00049 458.142C1.08768 439.786 12.9411 403.871 60 403.871M1.00049 455.219L1.00049 59.6785M1.00049 59.6785V59.2713M1.00049 59.6785C0.999843 59.5438 0.999839 59.408 1.00049 59.2713M1.00049 59.2713C1.08768 40.9154 12.9411 4.99999 60 4.99999" stroke="black" stroke-width="2" stroke-dasharray="2 2"/>
<ellipse cx="61" cy="4.5" rx="7" ry="4.5" fill="#22A75D"/>
<ellipse cx="61" cy="404.5" rx="7" ry="4.5" fill="#22A75D"/>
<ellipse cx="61" cy="800.5" rx="7" ry="4.5" fill="#22A75D"/>
<ellipse cx="61" cy="1200.5" rx="7" ry="4.5" fill="#22A75D"/>
</svg>
