<svg width="50" height="56" viewBox="0 0 50 56" fill="none" xmlns="http://www.w3.org/2000/svg">
<path d="M10 40.625H40V45.625H10V40.625ZM20 27.7L26.98 34.685L36.81 24.8475L40 28.125V18.125H30L33.275 21.3125L26.9775 27.61L20 20.625L10 30.625L13.535 34.16L20 27.7Z" fill="white"/>
<path d="M42.5 5.62493H34.255C34.0074 5.25681 33.7403 4.90215 33.455 4.56243L33.43 4.53243C31.5925 2.39386 29.0086 1.03662 26.205 0.737427C25.4087 0.587199 24.5913 0.587199 23.795 0.737427C20.9914 1.03662 18.4075 2.39386 16.57 4.53243L16.545 4.56243C16.2597 4.90134 15.9927 5.25517 15.745 5.62243V5.62493H7.5C5.51149 5.62691 3.60498 6.41773 2.19889 7.82382C0.7928 9.22991 0.00198554 11.1364 0 13.1249V48.1249C0.00198554 50.1134 0.7928 52.0199 2.19889 53.426C3.60498 54.8321 5.51149 55.6229 7.5 55.6249H42.5C44.4885 55.6229 46.395 54.8321 47.8011 53.426C49.2072 52.0199 49.998 50.1134 50 48.1249V13.1249C49.998 11.1364 49.2072 9.22991 47.8011 7.82382C46.395 6.41773 44.4885 5.62691 42.5 5.62493ZM45 48.1249C45 48.788 44.7366 49.4239 44.2678 49.8927C43.7989 50.3615 43.163 50.6249 42.5 50.6249H7.5C6.83696 50.6249 6.20107 50.3615 5.73223 49.8927C5.26339 49.4239 5 48.788 5 48.1249V13.1249C5 12.4619 5.26339 11.826 5.73223 11.3572C6.20107 10.8883 6.83696 10.6249 7.5 10.6249H18.875C19.1619 9.21207 19.9284 7.94183 21.0447 7.02946C22.1609 6.11708 23.5583 5.61866 25 5.61866C26.4417 5.61866 27.8391 6.11708 28.9553 7.02946C30.0716 7.94183 30.8381 9.21207 31.125 10.6249H42.5C43.163 10.6249 43.7989 10.8883 44.2678 11.3572C44.7366 11.826 45 12.4619 45 13.1249V48.1249Z" fill="white"/>
</svg>
