<svg width="285" height="44" viewBox="0 0 285 44" fill="none" xmlns="http://www.w3.org/2000/svg">
<path d="M21 0.833496C15.4317 0.833496 10.0866 3.04736 6.15234 6.9842C2.2141 10.9226 0.00112694 16.2638 0 21.8335C0 27.4008 2.21484 32.7459 6.15234 36.6828C10.0866 40.6196 15.4317 42.8335 21 42.8335C26.5683 42.8335 31.9134 40.6196 35.8477 36.6828C39.7852 32.7459 42 27.4008 42 21.8335C42 16.2662 39.7852 10.921 35.8477 6.9842C31.9134 3.04736 26.5683 0.833496 21 0.833496Z" fill="#124984"/>
<path d="M9.50499 21.6116C15.6278 18.9446 19.7097 17.1863 21.7506 16.3366C27.5847 13.9108 28.7955 13.4895 29.5862 13.4752C29.7602 13.4724 30.1473 13.5154 30.4 13.7197C30.61 13.8919 30.6691 14.1249 30.6986 14.2885C30.7248 14.4519 30.7609 14.8243 30.7314 15.115C30.4164 18.4357 29.0481 26.4937 28.3525 30.213C28.0605 31.7867 27.4797 32.3144 26.9186 32.3659C25.698 32.4781 24.7727 31.56 23.5914 30.7859C21.7441 29.5742 20.7006 28.8202 18.9058 27.6379C16.832 26.2716 18.1773 25.5205 19.3586 24.2933C19.667 23.9721 25.0417 19.0847 25.1434 18.6414C25.1566 18.5859 25.1697 18.3792 25.045 18.2703C24.9236 18.161 24.7431 18.1984 24.6119 18.2279C24.4248 18.2699 21.475 20.2216 15.7525 24.0827C14.9158 24.6582 14.1578 24.9388 13.4753 24.924C12.7272 24.9079 11.2834 24.5001 10.2105 24.1516C8.89796 23.724 7.85124 23.498 7.94312 22.7718C7.98906 22.3938 8.51078 22.007 9.50499 21.6116Z" fill="white"/>
<circle cx="117" cy="21.8335" r="18" fill="white"/>
<circle cx="263" cy="20.8335" r="18" fill="white"/>
<circle cx="69" cy="24.8335" r="18" fill="white"/>
<circle cx="164" cy="18.8335" r="18" fill="white"/>
<path d="M166.001 0C161.881 0 157.853 1.22185 154.427 3.51105C151.001 5.80025 148.331 9.05397 146.754 12.8608C145.177 16.6676 144.764 20.8564 145.568 24.8977C146.372 28.939 148.356 32.6511 151.27 35.5647C154.184 38.4783 157.896 40.4625 161.937 41.2664C165.978 42.0702 170.167 41.6577 173.974 40.0808C177.781 38.504 181.034 35.8337 183.324 32.4077C185.613 28.9817 186.835 24.9538 186.835 20.8333C186.829 15.3097 184.632 10.0138 180.727 6.10804C176.821 2.20222 171.525 0.00551538 166.001 0ZM178.374 16.0688V17.4146C178.374 17.5176 178.354 17.6196 178.314 17.7145C178.274 17.8094 178.215 17.8953 178.141 17.9671C178.067 18.039 177.98 18.0953 177.884 18.1328C177.788 18.1703 177.686 18.1882 177.583 18.1854C175.383 18.0295 173.279 17.2264 171.535 15.8771V25.7271C171.534 26.8173 171.317 27.8965 170.895 28.9016C170.473 29.9068 169.854 30.8177 169.076 31.5813C168.291 32.3638 167.358 32.9824 166.332 33.4009C165.305 33.8193 164.206 34.0294 163.097 34.0188C160.868 34.0149 158.728 33.1402 157.135 31.5813C156.121 30.5592 155.391 29.2908 155.016 27.9008C154.641 26.5109 154.635 25.0474 154.997 23.6542C155.328 22.3167 155.997 21.0875 156.941 20.0854C157.645 19.2252 158.532 18.5331 159.538 18.0598C160.543 17.5866 161.642 17.344 162.753 17.35H164.462V20.8979C164.462 21.001 164.441 21.103 164.399 21.1972C164.358 21.2914 164.296 21.3756 164.219 21.4442C164.143 21.5128 164.052 21.5642 163.954 21.595C163.855 21.6259 163.752 21.6354 163.649 21.6229C162.657 21.325 161.589 21.4238 160.668 21.8986C159.748 22.3733 159.047 23.1869 158.715 24.1678C158.383 25.1487 158.444 26.2204 158.887 27.1568C159.329 28.0932 160.118 28.8213 161.087 29.1875C161.649 29.5104 162.278 29.7 162.924 29.7438C163.424 29.7646 163.924 29.7021 164.399 29.5521C165.193 29.2851 165.883 28.777 166.373 28.0986C166.863 27.4203 167.13 26.6058 167.135 25.7688V7.82084C167.134 7.72244 167.154 7.62496 167.191 7.53398C167.228 7.443 167.283 7.3603 167.353 7.29063C167.422 7.22096 167.505 7.16568 167.596 7.12796C167.687 7.09025 167.784 7.07083 167.883 7.07084H170.83C171.022 7.07057 171.207 7.14391 171.346 7.27572C171.485 7.40753 171.568 7.58775 171.578 7.77917C171.686 8.6983 171.978 9.58624 172.437 10.3899C172.896 11.1935 173.512 11.8963 174.249 12.4563C175.245 13.2039 176.428 13.6624 177.668 13.7813C177.854 13.7971 178.027 13.8798 178.157 14.0138C178.286 14.1479 178.363 14.3243 178.372 14.5104L178.374 16.0688Z" fill="#124984"/>
<circle cx="214.5" cy="20.3335" r="17.5" fill="white"/>
<path d="M207.9 9.89893L223.644 30.6244H221.205L205.297 9.89893H207.9Z" fill="#124984"/>
<path d="M224.25 0.833496H204.75C202.164 0.833496 199.684 1.86073 197.856 3.6892C196.027 5.51768 195 7.99764 195 10.5835V30.0835C195 32.6694 196.027 35.1493 197.856 36.9778C199.684 38.8063 202.164 39.8335 204.75 39.8335H224.25C226.836 39.8335 229.316 38.8063 231.144 36.9778C232.973 35.1493 234 32.6694 234 30.0835V10.5835C234 7.99764 232.973 5.51768 231.144 3.6892C229.316 1.86073 226.836 0.833496 224.25 0.833496ZM219.726 32.6185L213.135 24.0385L205.569 32.6185H201.396L211.146 21.484L200.85 8.0485H209.489L215.455 15.8485L222.3 8.0485H226.473L217.386 18.3835L228.15 32.6185H219.726Z" fill="#124984"/>
<path d="M269.14 11.3862H257.775C256.651 11.3862 255.572 11.8162 254.777 12.5817C253.982 13.3471 253.535 14.3852 253.535 15.4677V26.6535C253.535 27.1895 253.645 27.7202 253.858 28.2154C254.071 28.7106 254.383 29.1605 254.777 29.5395C255.171 29.9185 255.638 30.2192 256.153 30.4243C256.667 30.6294 257.218 30.735 257.775 30.735H269.14C269.697 30.735 270.248 30.6294 270.763 30.4243C271.277 30.2192 271.745 29.9185 272.138 29.5395C272.532 29.1605 272.845 28.7106 273.058 28.2154C273.271 27.7202 273.38 27.1895 273.38 26.6535V15.4879C273.383 14.9503 273.275 14.4177 273.063 13.9204C272.85 13.4231 272.539 12.971 272.145 12.59C271.751 12.2089 271.283 11.9065 270.767 11.6999C270.252 11.4934 269.699 11.3868 269.14 11.3862ZM263.457 26.96C262.332 26.9844 261.225 26.6857 260.277 26.1018C259.329 25.5179 258.583 24.6754 258.135 23.6818C257.687 22.6882 257.556 21.5886 257.76 20.5233C257.964 19.458 258.493 18.4753 259.279 17.7007C260.066 16.926 261.075 16.3945 262.176 16.174C263.278 15.9536 264.423 16.0541 265.465 16.4628C266.508 16.8715 267.4 17.5698 268.028 18.4686C268.656 19.3675 268.991 20.426 268.992 21.5093C269 22.217 268.864 22.9195 268.59 23.5765C268.317 24.2335 267.911 24.8322 267.397 25.3384C266.883 25.8446 266.271 26.2484 265.595 26.5266C264.918 26.8048 264.192 26.9521 263.457 26.96ZM269.607 16.0606C269.469 16.0606 269.332 16.0341 269.205 15.9826C269.077 15.931 268.962 15.8556 268.865 15.7605C268.768 15.6655 268.692 15.5529 268.641 15.4292C268.59 15.3055 268.566 15.1732 268.568 15.0402C268.568 14.7696 268.68 14.5101 268.879 14.3187C269.078 14.1273 269.347 14.0198 269.628 14.0198C269.91 14.0198 270.179 14.1273 270.378 14.3187C270.577 14.5101 270.688 14.7696 270.688 15.0402C270.693 15.1843 270.664 15.3275 270.606 15.4601C270.547 15.5926 270.459 15.7114 270.348 15.8083C270.238 15.9052 270.106 15.978 269.964 16.0215C269.821 16.065 269.67 16.0784 269.522 16.0606H269.607Z" fill="#124984"/>
<path d="M263.457 0.833749C257.901 0.807007 252.561 2.90593 248.613 6.66877C244.664 10.4316 242.43 15.5501 242.403 20.8983C242.375 26.2466 244.555 31.3863 248.464 35.187C252.374 38.9877 257.691 41.1379 263.247 41.1646C265.998 41.1778 268.725 40.6694 271.272 39.6682C273.819 38.667 276.136 37.1928 278.091 35.3296C280.046 33.4664 281.601 31.2508 282.666 28.8093C283.732 26.3678 284.287 23.7482 284.301 21.1C284.315 18.4518 283.787 15.827 282.747 13.3754C281.706 10.9237 280.175 8.69326 278.239 6.81136C276.304 4.92947 274.002 3.43298 271.466 2.40733C268.929 1.38169 266.208 0.846989 263.457 0.833749ZM276.179 26.4479C276.185 27.3526 276.004 28.2494 275.647 29.0863C275.29 29.9232 274.764 30.6837 274.1 31.3235C273.435 31.9633 272.646 32.4698 271.776 32.8136C270.907 33.1574 269.975 33.3317 269.035 33.3263H257.882C256.942 33.3314 256.011 33.157 255.142 32.8133C254.272 32.4695 253.483 31.9632 252.818 31.3237C252.154 30.6842 251.627 29.9241 251.27 29.0875C250.913 28.2509 250.731 27.3544 250.736 26.4499V15.7118C250.73 14.8071 250.911 13.9103 251.268 13.0734C251.625 12.2364 252.151 11.476 252.815 10.8362C253.48 10.1964 254.27 9.6899 255.139 9.3461C256.008 9.00229 256.94 8.82802 257.88 8.83337H269.035C269.975 8.82802 270.907 9.00223 271.776 9.34591C272.645 9.68958 273.435 10.1959 274.099 10.8355C274.764 11.4751 275.29 12.2353 275.647 13.072C276.004 13.9087 276.185 14.8053 276.179 15.7098V26.4479Z" fill="#124984"/>
<path d="M121.366 21.5919L116.231 19.2857C115.783 19.0854 115.415 19.3099 115.415 19.7874V24.1315C115.415 24.609 115.783 24.8335 116.231 24.6332L121.363 22.3269C121.814 22.1245 121.814 21.7944 121.366 21.5919ZM117.701 0.833496C105.58 0.833496 95.7539 10.2918 95.7539 21.9594C95.7539 33.6271 105.58 43.0854 117.701 43.0854C129.822 43.0854 139.648 33.6271 139.648 21.9594C139.648 10.2918 129.822 0.833496 117.701 0.833496ZM117.701 30.5419C106.467 30.5419 106.27 29.567 106.27 21.9594C106.27 14.3519 106.467 13.377 117.701 13.377C128.935 13.377 129.132 14.3519 129.132 21.9594C129.132 29.567 128.935 30.5419 117.701 30.5419Z" fill="#124984"/>
<path d="M90 21.8335C90 10.2356 80.5979 0.833496 69 0.833496C57.4021 0.833496 48 10.2356 48 21.8335C48 32.3151 55.6794 41.0031 65.7188 42.5784V27.9038H60.3867V21.8335H65.7188V17.2069C65.7188 11.9438 68.854 9.03662 73.6508 9.03662C75.9484 9.03662 78.3516 9.44678 78.3516 9.44678V14.6147H75.7036C73.0948 14.6147 72.2812 16.2336 72.2812 17.8944V21.8335H78.1055L77.1744 27.9038H72.2812V42.5784C82.3206 41.0031 90 32.3153 90 21.8335Z" fill="#124984"/>
</svg>
