<svg width="1029" height="113" viewBox="0 0 1029 113" fill="none" xmlns="http://www.w3.org/2000/svg">
<path d="M30.3879 1.90909L54.7842 81.8097H55.6897L80.086 1.90909H109.596L72.7884 111H37.6855L0.87793 1.90909H30.3879ZM151.158 1.90909H177.152V77.3352C177.116 84.402 175.43 90.581 172.092 95.8722C168.753 101.128 164.137 105.212 158.242 108.124C152.383 111.036 145.6 112.491 137.894 112.491C131.076 112.491 124.879 111.302 119.304 108.923C113.764 106.543 109.343 102.85 106.04 97.843C102.773 92.8359 101.158 86.4261 101.193 78.6136H127.454C127.56 81.419 128.093 83.8161 129.052 85.8047C130.046 87.7578 131.413 89.2315 133.153 90.2259C134.893 91.2202 136.971 91.7173 139.386 91.7173C141.907 91.7173 144.038 91.1847 145.778 90.1193C147.518 89.0185 148.832 87.4027 149.719 85.272C150.643 83.1413 151.122 80.4957 151.158 77.3352V1.90909ZM318.776 1.90909V111H296.404L252.991 48.0383H252.298V111H225.931V1.90909H248.623L291.556 64.7642H292.462V1.90909H318.776ZM335.355 111V1.90909H411.42V23.3224H361.722V45.6946H407.532V67.1612H361.722V89.5866H411.42V111H335.355ZM424.364 23.3224V1.90909H516.57V23.3224H483.491V111H457.496V23.3224H424.364ZM587.828 111L556.08 1.90909H585.217L601.677 73.3935H602.582L621.386 1.90909H645.143L663.946 73.5533H664.852L681.364 1.90909H710.448L678.754 111H653.346L633.69 44.8423H632.838L613.183 111H587.828ZM817.861 56.4545C817.861 68.4574 815.553 78.6314 810.937 86.9766C806.32 95.3217 800.07 101.661 792.187 105.993C784.339 110.325 775.532 112.491 765.766 112.491C755.965 112.491 747.14 110.308 739.292 105.94C731.444 101.572 725.212 95.233 720.596 86.9233C716.015 78.5781 713.724 68.4219 713.724 56.4545C713.724 44.4517 716.015 34.2777 720.596 25.9325C725.212 17.5874 731.444 11.2486 739.292 6.91619C747.14 2.5838 755.965 0.41761 765.766 0.41761C775.532 0.41761 784.339 2.5838 792.187 6.91619C800.07 11.2486 806.32 17.5874 810.937 25.9325C815.553 34.2777 817.861 44.4517 817.861 56.4545ZM790.908 56.4545C790.908 49.3523 789.896 43.3509 787.872 38.4503C785.883 33.5497 783.007 29.8388 779.243 27.3175C775.514 24.7962 771.022 23.5355 765.766 23.5355C760.546 23.5355 756.054 24.7962 752.29 27.3175C748.525 29.8388 745.631 33.5497 743.607 38.4503C741.618 43.3509 740.624 49.3523 740.624 56.4545C740.624 63.5568 741.618 69.5582 743.607 74.4588C745.631 79.3594 748.525 83.0703 752.29 85.5916C756.054 88.1129 760.546 89.3736 765.766 89.3736C771.022 89.3736 775.514 88.1129 779.243 85.5916C783.007 83.0703 785.883 79.3594 787.872 74.4588C789.896 69.5582 790.908 63.5568 790.908 56.4545ZM833.255 111V1.90909H878.319C886.487 1.90909 893.536 3.38281 899.466 6.33025C905.432 9.24218 910.031 13.4325 913.263 18.9013C916.494 24.3345 918.11 30.7798 918.11 38.2372C918.11 45.8011 916.459 52.2287 913.156 57.5199C909.853 62.7756 905.166 66.7884 899.093 69.5582C893.021 72.2926 885.83 73.6598 877.52 73.6598H849.022V52.8857H872.62C876.597 52.8857 879.917 52.3707 882.581 51.3409C885.28 50.2756 887.321 48.6776 888.706 46.5469C890.091 44.3807 890.784 41.6108 890.784 38.2372C890.784 34.8636 890.091 32.076 888.706 29.8743C887.321 27.6371 885.28 25.968 882.581 24.8672C879.882 23.7308 876.562 23.1626 872.62 23.1626H859.623V111H833.255ZM894.672 61.142L921.839 111H893.074L866.441 61.142H894.672ZM932.572 111V1.90909H958.939V48.0383H960.377L996.439 1.90909H1027.49L988.822 50.5952L1028.19 111H996.652L969.486 68.12L958.939 81.4368V111H932.572Z" fill="#F0E3DB" fill-opacity="0.89"/>
</svg>
